<svg xmlns="http://www.w3.org/2000/svg" xmlns:xlink="http://www.w3.org/1999/xlink" viewBox="0 0 273.1 226.26"><defs><style>.cls-1{fill:none;}.cls-2{clip-path:url(#clip-path);}.cls-3{fill:url(#linear-gradient);}.cls-4{fill:url(#linear-gradient-2);}.cls-5{fill:url(#linear-gradient-3);}.cls-6{fill:url(#linear-gradient-4);}.cls-7{fill:url(#linear-gradient-5);}.cls-8{fill:url(#linear-gradient-6);}.cls-9{fill:url(#linear-gradient-7);}.cls-10{fill:url(#linear-gradient-8);}</style><clipPath id="clip-path" transform="translate(54.85 -27.09)"><rect class="cls-1" width="190.91" height="270"/></clipPath><linearGradient id="linear-gradient" x1="-614.97" y1="33.69" x2="-514.47" y2="126.88" gradientTransform="translate(-485.09 271.07) rotate(180)" gradientUnits="userSpaceOnUse"><stop offset="0" stop-color="#d8b542"/><stop offset="1" stop-color="#5bd0f8"/></linearGradient><linearGradient id="linear-gradient-2" x1="-545.3" y1="-1110.21" x2="-444.8" y2="-1017.03" gradientTransform="translate(-1061.47 674.03) rotate(90)" xlink:href="#linear-gradient"/><linearGradient id="linear-gradient-3" x1="-528.25" y1="-1128.6" x2="-427.76" y2="-1035.41" gradientTransform="translate(-1073.07 646.24) rotate(91.48)" xlink:href="#linear-gradient"/><linearGradient id="linear-gradient-4" x1="3131.5" y1="-3923.92" x2="3012.02" y2="-4059.15" gradientTransform="matrix(-1, 0, 0, 1, 3191.92, 4095.18)" gradientUnits="userSpaceOnUse"><stop offset="0" stop-color="#e9a900"/><stop offset="1" stop-color="#5baff8"/></linearGradient><linearGradient id="linear-gradient-5" x1="3131.55" y1="-3923.97" x2="3012.07" y2="-4059.2" gradientTransform="matrix(-1, 0, 0, 1, 3246.77, 4068.09)" xlink:href="#linear-gradient"/><linearGradient id="linear-gradient-6" x1="3133.88" y1="-3926.03" x2="3014.4" y2="-4061.26" gradientTransform="matrix(-0.8, -0.61, -0.61, 0.8, 132.57, 5116.69)" xlink:href="#linear-gradient"/><linearGradient id="linear-gradient-7" x1="4803.35" y1="1162.8" x2="4814.25" y2="1162.8" gradientTransform="matrix(0, -1, -1, 0, 1286.07, 4843.76)" xlink:href="#linear-gradient"/><linearGradient id="linear-gradient-8" x1="3375.59" y1="-3210.14" x2="3475.47" y2="-3117.53" gradientTransform="matrix(-0.71, 0.71, 0.71, 0.71, 4838.14, -19.38)" gradientUnits="userSpaceOnUse"><stop offset="0" stop-color="#f86447"/><stop offset="1" stop-color="#d7a223"/></linearGradient></defs><title>headerbackground</title><g id="Layer_2" data-name="Layer 2"><g id="Template_4" data-name="Template 4"><g id="design"><g class="cls-2"><path class="cls-3" d="M53.63,173.2a19.71,19.71,0,0,0,7.32-.88c12-3.7,19.55-2.17,24.56,3.35a20.71,20.71,0,0,1,3.29,22.92A23.34,23.34,0,0,1,70.86,211.5h0a11,11,0,0,0-9.74,10.81,11.14,11.14,0,0,0,7.32,10.37,10.3,10.3,0,0,0,6.43.3v0c10.61-2.78,18,1.56,20.82,12.17h0a11,11,0,1,0,10.6-13.73,10.67,10.67,0,0,0-2.79.37v0c-6.68,1.76-12.1.68-15.89-3a14.13,14.13,0,0,1-3.06-15.24c3.1-8,10.79-14.86,22.16-15.18h0a15.35,15.35,0,1,0-3.88-30.29h0c-14.66,3.38-24.31-.14-28.66-19h0A19.73,19.73,0,1,0,53.63,173.2Z" transform="translate(54.85 -27.09)"/><path class="cls-4" d="M-15.42,205a20,20,0,0,0-.89-7.32c-3.7-12-2.17-19.55,3.36-24.56A20.7,20.7,0,0,1,10,169.8a23.34,23.34,0,0,1,12.91,17.94h0a11,11,0,0,0,10.81,9.74,11.14,11.14,0,0,0,10.37-7.32,10.37,10.37,0,0,0,.31-6.43h0c-2.78-10.61,1.57-18,12.17-20.82h0A11,11,0,1,0,42.8,152.3a11.11,11.11,0,0,0,.37,2.79h0c1.75,6.68.67,12.1-3,15.9A14.14,14.14,0,0,1,24.9,174c-8-3.1-14.86-10.79-15.18-22.16h0A15.35,15.35,0,0,0-7,137a15.41,15.41,0,0,0-13.63,12.14,15.16,15.16,0,0,0,.06,6.61h0c3.38,14.66-.14,24.31-19,28.66h0a19.73,19.73,0,0,0-15.3,19.22,19.74,19.74,0,0,0,21,19.7A19.83,19.83,0,0,0-15.42,205Z" transform="translate(54.85 -27.09)"/><circle class="cls-5" cx="5.34" cy="212.41" r="8.53" transform="translate(49.35 -26.88) rotate(-1.48)"/><path class="cls-6" d="M94.24,127.79a17.91,17.91,0,0,1,7.33,0,37.84,37.84,0,0,0,14,.72c21-3.72,16.73-35.27-4.56-33.66a48.07,48.07,0,0,0-7.53,1.26v0a22.83,22.83,0,1,1-8.78-44.76,22.57,22.57,0,0,1,11.07,1.11v0C127.31,60.1,145.14,45.27,149,34.6v0a11.33,11.33,0,1,1,10.66,15.13,11.47,11.47,0,0,1-2-.2h0c-4.75-.87-11.44.1-17.85,3.23-19,9.25-8.14,38,12.19,32.35l.5-.13h0a25.61,25.61,0,1,1-1,48.94c-22.63-7.43-31.53,1.06-36.68,16.72h0a17.72,17.72,0,1,1-20.52-22.87Z" transform="translate(54.85 -27.09)"/><circle class="cls-7" cx="167.41" cy="85.05" r="9.26"/><circle class="cls-8" cx="147.14" cy="68.3" r="11.94" transform="translate(43.53 75.93) rotate(-37.26)"/><path class="cls-9" d="M117.81,35a5.46,5.46,0,1,0,5.46-5.45A5.45,5.45,0,0,0,117.81,35Z" transform="translate(54.85 -27.09)"/><path class="cls-10" d="M172.89,196.29a19.66,19.66,0,0,1,5.76-4.52c11-5.84,15.26-12.21,14.91-19.62a20.6,20.6,0,0,0-13.8-18.41,23.19,23.19,0,0,0-21.67,3.53h0a10.9,10.9,0,0,1-14.44-.76,11.05,11.05,0,0,1-2.14-12.43,10.24,10.24,0,0,1,4.3-4.73h0c9.4-5.5,11.57-13.78,6.07-23.19h0A10.89,10.89,0,1,1,169,118.37a10.6,10.6,0,0,1-2.22,1.69h0c-5.93,3.46-9,8-9.05,13.29a14,14,0,0,0,8.56,12.85c7.8,3.45,18,2.87,26.25-4.9h0a15.25,15.25,0,1,1,18.56,24h0c-12.68,7.92-17,17.18-6.81,33.48h0a19.61,19.61,0,1,1-31.4-2.52Z" transform="translate(54.85 -27.09)"/></g></g></g></g></svg>