<svg xmlns="http://www.w3.org/2000/svg" xmlns:xlink="http://www.w3.org/1999/xlink" viewBox="0 0 429.41 289"><defs><style>.cls-1{isolation:isolate;}.cls-2{fill:#ccf2ff;}.cls-3{fill:#ade4f2;opacity:0.48;}.cls-13,.cls-26,.cls-3{mix-blend-mode:multiply;}.cls-15,.cls-4{fill:#379cf7;}.cls-13,.cls-14,.cls-26,.cls-5{fill:#092b96;}.cls-6{fill:#1574bc;}.cls-7{fill:#1d88d8;}.cls-21,.cls-8{fill:#fff;}.cls-8{opacity:0.05;}.cls-10,.cls-8,.cls-9{mix-blend-mode:overlay;}.cls-9{fill:url(#linear-gradient);}.cls-10{fill:url(#linear-gradient-2);}.cls-11{fill:#2b56e0;}.cls-12{fill:#7dc4f9;}.cls-13{opacity:0.39;}.cls-14,.cls-15,.cls-16,.cls-17{fill-rule:evenodd;}.cls-16,.cls-20{fill:#ffa683;}.cls-17,.cls-23{fill:#ef7f5e;}.cls-18{fill:#052575;}.cls-19{fill:#173acc;}.cls-22{fill:#09256b;}.cls-24{fill:#147ac6;}.cls-25{fill:#63b8f7;}.cls-26{opacity:0.4;}.cls-27{fill:#d8e8ef;}.cls-28{fill:#abd0dd;}</style><linearGradient id="linear-gradient" x1="264.03" y1="80.82" x2="310.07" y2="38.1" gradientTransform="translate(53.31 -123.92) rotate(28.34)" gradientUnits="userSpaceOnUse"><stop offset="0" stop-color="#fff"/><stop offset="1" stop-color="#fff" stop-opacity="0"/></linearGradient><linearGradient id="linear-gradient-2" x1="274.88" y1="92.51" x2="320.92" y2="49.79" xlink:href="#linear-gradient"/></defs><title>header</title><g class="cls-1"><g id="Layer_2" data-name="Layer 2"><g id="OBJECTS"><path class="cls-2" d="M78.37,261.9H354.44c27.05,0,50.5-19.66,54.18-46.45.08-.63.16-1.26.22-1.9,1.21-11.64-1.17-23.15-10.62-32-30.26-28.36,12-64.92,5.67-90.13S375.53,80.69,334.56,41,300-20.84,228.77,27.85C171.63,66.93,103.14,23.44,69.1,40.46S69.21,107.8,27.61,162C1.36,196.2,21,227.13,39.12,245.31A57.81,57.81,0,0,0,60,258.73,52.78,52.78,0,0,0,78.37,261.9Z"/><path class="cls-3" d="M403.89,91.41C397.59,66.2,375.53,80.69,334.56,41,306.67,14,300.72-4.92,277.3,1.15c18.7,6.54,24,12.46,29.21,24.6,29.83,69.76-31.94,139.93,10.08,171.44,23.14,17.36-24.95,42.74-68.77,64.71H354.44c27.05,0,50.5-19.66,54.18-46.45.08-.63.16-1.26.22-1.9,1.21-11.64-1.17-23.15-10.62-32C368,153.18,410.19,116.62,403.89,91.41Z"/><polygon class="cls-4" points="165.05 32.86 113.21 21.66 132.48 59.2 145.18 49.15 150.23 57.87 151.85 42.15 165.05 32.86"/><polygon class="cls-5" points="150.41 41.39 151.85 42.15 150.23 57.87 145.18 49.15 113.21 21.66 150.41 41.39"/><polygon class="cls-6" points="139.5 53.64 150.23 57.87 145.18 49.15 139.5 53.64"/><path class="cls-5" d="M153.76,59.67c-.47-.45-.92-.93-1.34-1.41l.37-.32c.41.47.85.94,1.31,1.39Z"/><path class="cls-5" d="M290,138.78c-1.27-.08-2.56-.19-3.82-.33l.05-.48c1.26.14,2.54.25,3.8.33Zm-7.62-.84c-1.26-.21-2.53-.44-3.77-.71l.1-.47c1.24.26,2.5.5,3.74.7Zm-7.51-1.59c-1.23-.32-2.47-.68-3.68-1.06l.14-.46c1.2.38,2.44.73,3.67,1.06Zm-7.31-2.29c-1.2-.43-2.4-.9-3.57-1.4l.18-.44c1.17.49,2.37,1,3.55,1.39Zm-7.08-3c-1.15-.54-2.3-1.12-3.42-1.72l.22-.42c1.12.59,2.26,1.16,3.41,1.71Zm-6.77-3.59c-1.1-.65-2.19-1.33-3.25-2l.26-.4c1.06.69,2.14,1.37,3.24,2Zm-6.41-4.2c-1-.75-2.06-1.53-3.06-2.32l.3-.38c1,.79,2,1.57,3,2.31Zm-6-4.78c-1-.84-1.91-1.71-2.82-2.59l.33-.35c.91.88,1.85,1.75,2.81,2.58Zm-5.52-5.31c-.87-.93-1.74-1.89-2.57-2.86l.37-.31c.82,1,1.68,1.92,2.55,2.84Zm-5-5.83c-.78-1-1.54-2-2.27-3.09l.4-.28c.72,1,1.47,2.07,2.25,3.08Zm-4.38-6.29-.48-.79c-.51-.85-1-1.7-1.46-2.52l.42-.24c.46.82.94,1.67,1.46,2.51.15.26.31.52.47.78Zm-3.69-6.73c-.56-1.18-1.07-2.37-1.52-3.53l.45-.17c.45,1.15.95,2.33,1.51,3.5ZM220,87.2a36.72,36.72,0,0,1-.9-3.73l.47-.09c.23,1.21.53,2.46.89,3.69Zm2.76-7,0-.48a18.57,18.57,0,0,0,3.73-.51l.13.46A17.8,17.8,0,0,1,222.76,80.21Zm-3.85-.12a30.16,30.16,0,0,1-3.8-.59l.1-.47a29.43,29.43,0,0,0,3.38.55c0-.55-.06-1.09-.06-1.61,0-.75,0-1.48.11-2.18l.48,0A20.93,20.93,0,0,0,219,78q0,.81.06,1.65H219Zm-7.49-1.74A19.77,19.77,0,0,1,208,76.56l.26-.4a19.89,19.89,0,0,0,3.34,1.74Zm18.73-.23-.27-.4.28-.19a7.76,7.76,0,0,0,2.2-2.52l.42.23a8.27,8.27,0,0,1-2.33,2.68Zm-25.14-4a20.81,20.81,0,0,1-2.45-3l.39-.28a20.77,20.77,0,0,0,2.4,2.92Zm15-1.92-.45-.17a10.58,10.58,0,0,1,2-3.33l.36.32A10,10,0,0,0,220,72.19Zm13.27-.72a5.11,5.11,0,0,0-.61-2.26,4.86,4.86,0,0,0-.77-1l.35-.34a5.25,5.25,0,0,1,.84,1.14,5.49,5.49,0,0,1,.67,2.47Zm-54.63-3.26v-.48c1.22,0,2.5,0,3.81-.13l0,.48C181.12,68.16,179.83,68.21,178.61,68.21Zm-3.84-.11c-1.31-.09-2.59-.23-3.82-.42l.07-.48c1.22.19,2.49.33,3.78.41Zm25.83-.29c-.55-1.08-1.06-2.23-1.57-3.51l.45-.18c.5,1.27,1,2.4,1.55,3.47Zm-14.34-.06,0-.48,3-.37.76-.11.07.48-.77.1C188.22,67.52,187.23,67.64,186.26,67.75ZM225,67l-.15-.46a8.44,8.44,0,0,1,3.88-.39l-.07.47A8.07,8.07,0,0,0,225,67Zm-57.77-.1a35.67,35.67,0,0,1-3.67-1.16l.17-.45a34.69,34.69,0,0,0,3.62,1.14Zm26.66-.29-.09-.47a37.29,37.29,0,0,0,3.68-.92l.14.46A38.33,38.33,0,0,1,193.84,66.62Zm7.34-2.29-.2-.44A21.14,21.14,0,0,0,204.25,62l.27.39A20.83,20.83,0,0,1,201.18,64.33ZM160,64.16a26.9,26.9,0,0,1-3.28-2l.28-.39a28.05,28.05,0,0,0,3.22,2Zm37.75-3.48A30.56,30.56,0,0,1,196.8,57l.48-.09a27.84,27.84,0,0,0,.93,3.67Zm9.64-.88-.36-.32a15,15,0,0,0,2.07-3.13l.43.22A15.61,15.61,0,0,1,207.39,59.8ZM197,53.11l-.48,0a13.58,13.58,0,0,1,.16-1.71,11.3,11.3,0,0,1,.55-2.11l.45.17a11,11,0,0,0-.52,2A13,13,0,0,0,197,53.11Zm13.77-.23-.47-.08a11,11,0,0,0,.18-2,10.17,10.17,0,0,0-.15-1.75l.47-.08a10,10,0,0,1,.16,1.83A11.1,11.1,0,0,1,210.75,52.88Zm-11.23-6.67-.37-.31a8.42,8.42,0,0,1,3.12-2.34l.19.45A7.83,7.83,0,0,0,199.52,46.21Zm9.42-.56A5.06,5.06,0,0,0,207.12,44a4.25,4.25,0,0,0-1.07-.38l.1-.47a4.81,4.81,0,0,1,1.19.42,5.52,5.52,0,0,1,2,1.84Z"/><path class="cls-5" d="M294.59,138.92H294v-.49h1.93v.48Z"/><path class="cls-7" d="M299,50.9q-1-.55-2.1-1a27,27,0,0,1-25.5,47.29c.64.42,1.31.82,2,1.19A27,27,0,0,0,299,50.9Z"/><path class="cls-4" d="M294.91,48.69a27,27,0,1,0,10.93,36.52A26.95,26.95,0,0,0,294.91,48.69Zm-22,40.77a19.37,19.37,0,1,1,26.24-7.85A19.38,19.38,0,0,1,272.92,89.46Z"/><path class="cls-4" d="M262.5,61.83a27,27,0,0,1,34.42-11.95c-.64-.42-1.32-.82-2-1.19a27,27,0,0,0-25.6,47.45c.7.38,1.4.72,2.11,1A27,27,0,0,1,262.5,61.83Z"/><path class="cls-8" d="M291,55.22a19.36,19.36,0,1,0,8.29,26.1A19.37,19.37,0,0,0,291,55.22Z"/><path class="cls-9" d="M299.13,63.17,262.83,74a19.11,19.11,0,0,1,2-10.41l26.81-8A19.17,19.17,0,0,1,299.13,63.17Z"/><path class="cls-10" d="M299.31,81.32c-.09.18-.19.36-.29.53l-25.86,7.73A19.26,19.26,0,0,1,263.91,79l37-11.08A19.28,19.28,0,0,1,299.31,81.32Z"/><rect class="cls-4" x="253.48" y="90" width="9.73" height="58.94" transform="translate(87.68 -108.32) rotate(28.34)"/><path class="cls-7" d="M385.16,81.65V76.57a2,2,0,0,0-2-2h-2.59a2.82,2.82,0,0,1-2.67-2,19.58,19.58,0,0,0-1.1-2.68,2.81,2.81,0,0,1,.5-3.27l1.83-1.83a2,2,0,0,0,0-2.83l-3.6-3.6a2,2,0,0,0-2.84,0l-1.83,1.83a2.79,2.79,0,0,1-3.26.5,21,21,0,0,0-2.68-1.11A2.8,2.8,0,0,1,363,57V54.37a2,2,0,0,0-2-2h-5.08a2,2,0,0,0-2,2V57a2.81,2.81,0,0,1-1.95,2.66,20.4,20.4,0,0,0-2.68,1.11,2.81,2.81,0,0,1-3.27-.5l-1.83-1.83a2,2,0,0,0-2.83,0l-3.6,3.6a2,2,0,0,0,0,2.83l1.83,1.83a2.82,2.82,0,0,1,.5,3.27,21,21,0,0,0-1.11,2.68,2.8,2.8,0,0,1-2.66,2h-2.59a2,2,0,0,0-2,2v5.08a2,2,0,0,0,2,2h2.59a2.8,2.8,0,0,1,2.66,2A21,21,0,0,0,340,88.29a2.82,2.82,0,0,1-.5,3.27l-1.83,1.83a2,2,0,0,0,0,2.83l3.6,3.6a2,2,0,0,0,2.83,0L346,98a2.81,2.81,0,0,1,3.27-.5,20.4,20.4,0,0,0,2.68,1.11,2.81,2.81,0,0,1,1.95,2.66v2.59a2,2,0,0,0,2,2H361a2,2,0,0,0,2-2v-2.59a2.8,2.8,0,0,1,1.95-2.66,21,21,0,0,0,2.68-1.11,2.79,2.79,0,0,1,3.26.5l1.83,1.83a2,2,0,0,0,2.84,0l3.6-3.6a2,2,0,0,0,0-2.83l-1.83-1.83a2.81,2.81,0,0,1-.5-3.27,19.58,19.58,0,0,0,1.1-2.68,2.82,2.82,0,0,1,2.67-2h2.59A2,2,0,0,0,385.16,81.65Zm-26.74,3.6a6.14,6.14,0,1,1,6.14-6.14A6.14,6.14,0,0,1,358.42,85.25Z"/><path class="cls-4" d="M410.15,113.27V110.4a1.14,1.14,0,0,0-1.14-1.14h-1.46a1.6,1.6,0,0,1-1.51-1.1,10.13,10.13,0,0,0-.63-1.52,1.59,1.59,0,0,1,.29-1.85l1-1a1.13,1.13,0,0,0,0-1.61l-2-2a1.13,1.13,0,0,0-1.61,0l-1,1a1.59,1.59,0,0,1-1.85.28,11.25,11.25,0,0,0-1.52-.62,1.6,1.6,0,0,1-1.1-1.51V97.84a1.14,1.14,0,0,0-1.14-1.14h-2.87a1.14,1.14,0,0,0-1.14,1.14V99.3a1.6,1.6,0,0,1-1.1,1.51,11.25,11.25,0,0,0-1.52.62,1.59,1.59,0,0,1-1.85-.28l-1-1a1.12,1.12,0,0,0-1.6,0l-2,2a1.13,1.13,0,0,0,0,1.61l1,1a1.59,1.59,0,0,1,.28,1.85,11.25,11.25,0,0,0-.62,1.52,1.6,1.6,0,0,1-1.51,1.1H381a1.14,1.14,0,0,0-1.13,1.14v2.87a1.14,1.14,0,0,0,1.13,1.14h1.47a1.6,1.6,0,0,1,1.51,1.1,11.25,11.25,0,0,0,.62,1.52,1.59,1.59,0,0,1-.28,1.85l-1,1a1.13,1.13,0,0,0,0,1.61l2,2a1.12,1.12,0,0,0,1.6,0l1-1a1.61,1.61,0,0,1,1.85-.29,10.13,10.13,0,0,0,1.52.63,1.6,1.6,0,0,1,1.1,1.51v1.46a1.14,1.14,0,0,0,1.14,1.14h2.87a1.14,1.14,0,0,0,1.14-1.14v-1.46a1.6,1.6,0,0,1,1.1-1.51,10.13,10.13,0,0,0,1.52-.63,1.61,1.61,0,0,1,1.85.29l1,1a1.13,1.13,0,0,0,1.61,0l2-2a1.13,1.13,0,0,0,0-1.61l-1-1a1.59,1.59,0,0,1-.29-1.85,10.13,10.13,0,0,0,.63-1.52,1.6,1.6,0,0,1,1.51-1.1H409A1.14,1.14,0,0,0,410.15,113.27ZM395,117.88a6,6,0,1,1,6-6A6,6,0,0,1,395,117.88Z"/><path class="cls-11" d="M420.34,80.57V77.69a1.14,1.14,0,0,0-1.13-1.14h-1.47a1.6,1.6,0,0,1-1.51-1.1,11.81,11.81,0,0,0-.62-1.52,1.59,1.59,0,0,1,.28-1.85l1-1a1.15,1.15,0,0,0,0-1.61l-2-2a1.13,1.13,0,0,0-1.6,0l-1,1a1.59,1.59,0,0,1-1.85.29,10.47,10.47,0,0,0-1.51-.63,1.6,1.6,0,0,1-1.11-1.51V65.13A1.14,1.14,0,0,0,406.65,64h-2.88a1.14,1.14,0,0,0-1.14,1.14v1.46a1.6,1.6,0,0,1-1.1,1.51,10.58,10.58,0,0,0-1.52.63,1.6,1.6,0,0,1-1.85-.29l-1-1a1.15,1.15,0,0,0-1.61,0l-2,2a1.15,1.15,0,0,0,0,1.61l1,1a1.59,1.59,0,0,1,.29,1.85,10.58,10.58,0,0,0-.63,1.52,1.6,1.6,0,0,1-1.51,1.1h-1.46a1.14,1.14,0,0,0-1.14,1.14v2.88a1.14,1.14,0,0,0,1.14,1.13h1.46a1.6,1.6,0,0,1,1.51,1.11,10.47,10.47,0,0,0,.63,1.51,1.59,1.59,0,0,1-.29,1.85l-1,1a1.13,1.13,0,0,0,0,1.6l2,2a1.15,1.15,0,0,0,1.61,0l1-1a1.59,1.59,0,0,1,1.85-.28,11.81,11.81,0,0,0,1.52.62,1.6,1.6,0,0,1,1.1,1.51v1.47a1.14,1.14,0,0,0,1.14,1.13h2.88a1.14,1.14,0,0,0,1.13-1.13V91.66a1.6,1.6,0,0,1,1.11-1.51,11.68,11.68,0,0,0,1.51-.62,1.59,1.59,0,0,1,1.85.28l1,1a1.13,1.13,0,0,0,1.6,0l2-2a1.13,1.13,0,0,0,0-1.6l-1-1a1.59,1.59,0,0,1-.28-1.85,11.68,11.68,0,0,0,.62-1.51,1.6,1.6,0,0,1,1.51-1.11h1.47A1.14,1.14,0,0,0,420.34,80.57Zm-15.13,1.6a3,3,0,1,1,3-3A3,3,0,0,1,405.21,82.17Z"/><path class="cls-7" d="M90.21,172.07S61.26,134.29,0,138.18C0,138.18,32.46,177,90.21,172.07Z"/><path class="cls-12" d="M72.53,146.37S78.8,99.18,32.75,58.59C32.75,58.59,28.22,109,72.53,146.37Z"/><path class="cls-12" d="M68,152.47s40.8-22.07,46.46-81.61C114.5,70.86,72.15,96.14,68,152.47Z"/><path class="cls-7" d="M77.31,149.12s-34-20.85-21.59-31.42c9.29-7.92-9-18.08-2-22s8.41-.32,6-10.45,5.72-12.87,8.67-23.18,17.5-6.51,16.44,8.46,3.32-.9,8.14,5.41-11.18,30.56-5.09,28.49,10.76,2.56,8.66,9.87C91.54,131.36,77.31,149.12,77.31,149.12Z"/><path class="cls-13" d="M78.49,156.62a.19.19,0,0,1-.11-.15,350.34,350.34,0,0,1-6.16-42.25v-.12l-.09-.08a90.78,90.78,0,0,1-9.54-10q-1.47-1.71-2.95-3.39c-.06-.06-.07-.11,0-.17a.26.26,0,0,1,.31-.08l.07,0q1.45,1.65,2.89,3.31a99.57,99.57,0,0,0,8.76,9.3l.53.47,0-.71c-.43-6.51-.57-13.17-.44-20.34v-.19l-.18-.08-.07-.06a77.07,77.07,0,0,1-7-13,.14.14,0,0,1,0-.19.26.26,0,0,1,.26-.05.18.18,0,0,1,.09.1,76.63,76.63,0,0,0,6.32,12l.51.8,0-1c.16-6.78.56-13.79,1.21-21.42,0-.09,0-.11.06-.12a.25.25,0,0,1,.22,0,.21.21,0,0,1,.12.21C72.42,79.94,72,89.37,72,98.34v.57l.46-.33A48.5,48.5,0,0,0,85.35,84.84c0-.06.08-.09.16,0a.27.27,0,0,1,.15.18.22.22,0,0,1,0,.19A48.63,48.63,0,0,1,72.21,99.3l-.16.1v.16c0,5,.22,9.7.54,14.26v.08l.05.07a.18.18,0,0,1,0,.19l0,.07v.08c.29,4,.71,8.25,1.3,12.92L74,128l.44-.63A194.39,194.39,0,0,1,87.7,110.09a.2.2,0,0,1,.25,0,.25.25,0,0,1,.13.16s0,.07,0,.13a196,196,0,0,0-13.87,18.18l-.06.09v.11c1.07,8.17,2.55,17,4.68,27.75,0,.1,0,.13,0,.14a.27.27,0,0,1-.26,0Z"/><path class="cls-4" d="M81.9,150.44s-39.07,15-40-2.07c-.68-12.79-20.83-4-19.66-12.33s5.1-7.22-4.9-11.63-7.08-13-13.79-22,5.74-18.75,17.54-8.31,1.38-3.33,9.71-3.33,18.34,28.82,20.5,22.43,9-7.34,13.75-.92C76.18,127.24,81.9,150.44,81.9,150.44Z"/><path class="cls-13" d="M88.9,154.24a.23.23,0,0,1-.2,0c-11.08-5.48-25.55-12.9-39.14-21.83l-.1-.08-.13,0a96.51,96.51,0,0,1-14.42,1.58c-1.57.09-3.14.18-4.7.3-.09,0-.14,0-.16-.1a.28.28,0,0,1,.13-.31l.09,0c1.53-.12,3.07-.21,4.6-.3a102.6,102.6,0,0,0,13.34-1.37l.73-.14-.62-.41c-5.7-3.8-11.34-7.93-17.24-12.62l-.16-.12-.17.09-.1,0a81.78,81.78,0,0,1-15.32-2.52c-.09,0-.13-.07-.14-.15a.28.28,0,0,1,.13-.26.17.17,0,0,1,.14,0,81.2,81.2,0,0,0,14.06,2.41l1,.08-.78-.63c-5.55-4.46-11.14-9.26-17.09-14.67a.14.14,0,0,1-.06-.13.29.29,0,0,1,.15-.18.21.21,0,0,1,.25,0c8.13,7.4,15.73,13.76,23.23,19.46l.47.36,0-.6a51,51,0,0,0-3.25-19.48.11.11,0,0,1,.06-.16.31.31,0,0,1,.25,0,.23.23,0,0,1,.13.14,51.05,51.05,0,0,1,3.23,20.23l0,.18.14.1c4.22,3.18,8.22,6,12.23,8.65l.07,0h.08a.21.21,0,0,1,.17.12l0,.07.07.05c3.55,2.33,7.34,4.67,11.6,7.16l.7.41-.25-.77A203.57,203.57,0,0,1,56,116.86a.2.2,0,0,1,.11-.23.25.25,0,0,1,.22,0s.06,0,.08.12a204.22,204.22,0,0,0,6.3,23.16l0,.11.1.06c7.49,4.33,15.79,8.72,26.12,13.82.1,0,.1.1.1.12a.27.27,0,0,1-.16.23Z"/><path class="cls-2" d="M429.41,278.92c0-5.57-93-10.09-207.67-10.09S14.06,273.35,14.06,278.92,107,289,221.74,289,429.41,284.49,429.41,278.92Z"/><path class="cls-14" d="M195,88.67c-.35-2.4-1.64-7.65-6.14-5.83-8.77-3.39-12.69.89-13.31,6.59-.78,7.16-4.8,10-3.31,12.07,1.86,2.56,7.61,6.31,13.55,6.45,6.2.12,11.64-4.89,13.27-7.61C200.34,98.17,196,95.8,195,88.67Z"/><path class="cls-15" d="M224.71,124.32c-3.14-5.72-15.48-18.68-16.85-19.15-3.86-1.31-10-1.9-13.6-2.21a84.82,84.82,0,0,0-9-.32l-2.63,0c-3.39,0-12.85.42-19.53,2.69-1.38.47-14.14,13.22-17.28,18.94a4.9,4.9,0,0,0-.16,4.38l13.45,27,6.71-1.43L160.52,131a5.19,5.19,0,0,1,1.51-4.88L170.56,116h29.31l8.64,10.06A5.19,5.19,0,0,1,210,131l-5.31,23.25,6.82,1,13.34-26.48A4.9,4.9,0,0,0,224.71,124.32Z"/><path class="cls-16" d="M165.19,154.35l2.91,2.52a.58.58,0,0,1-.31,1l-1.23.09.81,2.17c.84,2.26-3.86,5.71-5.8,1.25l-2-5.86Z"/><path class="cls-16" d="M205.46,154.33l-3,2.54a.59.59,0,0,0,.32,1L204,158l-.81,2.17c-.84,2.26,3.86,5.71,5.8,1.25l2.08-6.32Z"/><path class="cls-16" d="M192.91,91.8l.11,5.44a7.37,7.37,0,0,1-2.18,5.38c-.24.21-.48.45-.72.69a6.6,6.6,0,0,1-9,.18l-.73-.66a7.3,7.3,0,0,1-2.42-5.27l-.11-5.45s7.66-.07,10.59-3.71A7.09,7.09,0,0,0,192.91,91.8Z"/><path class="cls-16" d="M192.91,91.8l.11,5.44a7.37,7.37,0,0,1-2.18,5.38c-.24.21-.48.45-.72.69a6.6,6.6,0,0,1-9,.18l-.73-.66a7.3,7.3,0,0,1-2.42-5.27l-.11-5.45s7.6-.07,10.52-3.7A7.34,7.34,0,0,0,192.91,91.8Z"/><path class="cls-16" d="M179.83,98.59a2.4,2.4,0,0,0-3.41-3.28,1.44,1.44,0,0,0-.45.47,2.39,2.39,0,0,0,3.41,3.27A1.41,1.41,0,0,0,179.83,98.59Z"/><path class="cls-16" d="M194.85,98.28a2.38,2.38,0,0,0-3.24-3.37,1.78,1.78,0,0,0-.71.73,2.39,2.39,0,0,0,3.51,3.11A1.41,1.41,0,0,0,194.85,98.28Z"/><path class="cls-16" d="M189.81,103.85a4.28,4.28,0,1,0-8.55,0c0,2.38,1.92,4.81,4.28,4.81S189.81,106.23,189.81,103.85Z"/><path class="cls-17" d="M181.28,103.65c0,.07,0,.14,0,.2a6.66,6.66,0,0,0,4.39,2.39c2.1,0,4.16-2.23,4.16-2.39s0-.16,0-.24A6.6,6.6,0,0,1,181.28,103.65Z"/><path class="cls-7" d="M165.83,154.22,160.52,131a5.19,5.19,0,0,1,1.51-4.88L170.56,116s1.89-3.24.95-2.82S158,124.5,156.8,127.12c-.88,2,4.1,19.46,6.52,27.64Z"/><path class="cls-7" d="M207.86,105.17l-.71-.22c2.45,2.87,17.26,20.51,15.62,24.17-1.48,3.31-10.72,20.06-13.57,25.74l2.33.32,13.34-26.48a4.9,4.9,0,0,0-.16-4.38C221.57,118.6,209.23,105.64,207.86,105.17Z"/><path class="cls-5" d="M84.44,236.06l.76,2.15,11.34-1.16S109,253,114.22,258.41c.54.56,1.15,1.24,1.77,2,3.31-8,10-33.21,3.19-35.21C109.14,222.23,84.44,236.06,84.44,236.06Z"/><path class="cls-18" d="M107.16,250.26c2.69,3.23,5.3,6.3,7.06,8.15.54.56,1.15,1.24,1.77,2,2.07-5,5.43-16.63,6-25.2C119.76,235.54,112.12,244.32,107.16,250.26Z"/><path class="cls-19" d="M96.54,237.05S109,253,114.23,258.41s17,21.49-14.82,20.25-46.34-6.12-46.34-6.12l-.66-6.92,33.35-3.54S64.93,259.65,67.48,240Z"/><path class="cls-11" d="M97.14,239.51l.57-1c3.22,4.07,12.29,15.45,16.52,19.88,2,2.14,5.11,5.92,6.14,9.64-2.44-5.66-9.93-11-16.32-17.19C95.8,242.81,97.14,239.51,97.14,239.51Z"/><path class="cls-5" d="M46.65,267.06l-.29,0c-1.14.09-4.29.26-4.93,1.68-.74,1.65-1,9.83,4.36,10.07s-1-4,.83-5.78Z"/><path class="cls-5" d="M52.41,265.62l33.35-3.54s3.62,1.56,14.82,6c6.8,2.7,13.88,5.45,17.78,7.24-2.84,2.31-8.58,3.74-19,3.33-31.87-1.23-46.34-6.12-46.34-6.12Z"/><path class="cls-20" d="M53.07,272.54s-4-1.69-6.17.57c-3.09,3.26-.25-6.05-.25-6.05l5.76-1.44Z"/><path class="cls-21" d="M128.35,184.08l-9.69-8a.92.92,0,0,1-.24-1.12,8.09,8.09,0,0,0-12.84-9.41,8.27,8.27,0,0,0-1.35,1.7A8.08,8.08,0,0,0,116,177.91a.83.83,0,0,1,.3-.14.89.89,0,0,1,.84.17l9.7,8a1.2,1.2,0,0,0,.88.27,1.17,1.17,0,0,0,.81-.43A1.19,1.19,0,0,0,128.35,184.08Zm-12.64-8.87a5.92,5.92,0,1,1-.76-8.34A5.93,5.93,0,0,1,115.71,175.21Z"/><path class="cls-4" d="M115,166.87a5.92,5.92,0,1,0,.76,8.34A5.93,5.93,0,0,0,115,166.87Z"/><path class="cls-20" d="M123.17,179.3a3.6,3.6,0,0,0-2.66,1.4c-.24-.82-.67-2-1.12-2.22-.68-.28-1.48,5.34-1.48,5.34l.48-.4-.12.19,4.72,2.44C126,181.9,125.31,179.59,123.17,179.3Z"/><path class="cls-4" d="M67.49,222c1-9.71,2.34-20.08,4.15-22.87a9.85,9.85,0,0,1,2.74-3h0S65.59,201.64,62,210.29C60.21,214.48,63.57,218.72,67.49,222Z"/><path class="cls-20" d="M91.42,195.67l-.31-3.82a5.68,5.68,0,0,0,3.25-1.67c2.37-2.47,2.34-7.13.2-9.77-2,.6-4.5.19-4.59,1.27-.15,1.72-.31,3.1-.31,3.1-1.63-1-3.36-.88-3.13,1.31.09.87.71,2.28,1.35,2.39a5,5,0,0,1-3.18,5.17h0V195Z"/><path class="cls-5" d="M78.32,182.81c1.61-6.64,4.21-10.38,11.29-10.55,6.45-.16,7.31,5.21,7.31,5.21-.21,4.64-6.8,2.45-7,4.21s-.31,3.1-.31,3.1c-1.64-1-3.36-.89-3.14,1.31.1.88.72,2.28,1.36,2.39a5,5,0,0,1-3.18,5.17S76.71,189.42,78.32,182.81Z"/><path class="cls-22" d="M78.32,182.81c1.61-6.64,4.21-10.38,11.29-10.55,4.28-.11,6.1,2.22,6.83,3.8-3.14-3-10-4.78-14.34,2.15-3.74,6-1.38,13.23,5.53,12.44a4.77,4.77,0,0,1-2.93,3S76.71,189.42,78.32,182.81Z"/><path class="cls-23" d="M89.65,193.07c-.61-.38-1.3-2.32-1.3-2.32.72.84,2.77,1.1,2.77,1.1l.3,3.82-1.51-.16C90,194.32,89.91,193.23,89.65,193.07Z"/><path class="cls-4" d="M66,240.85s2-36.16,5.6-41.75c1.51-2.34,2.78-3.49,5.06-4a49.88,49.88,0,0,1,8-.31c3.15.29,11,1.34,13,2.11,2.63,1.07,13.09,10.19,13.09,10.19l7-24,5.8,2.16s-5.66,35.06-10.19,35.14S97.29,214,97.29,214s-.87,22.05,3.41,26.08C100.7,240.08,82.6,248.43,66,240.85Z"/><path class="cls-24" d="M71.67,198.06a31,31,0,0,1,2.71-2h0a9.85,9.85,0,0,0-2.74,3c-1.81,2.79-3.2,13.16-4.15,22.87a27.38,27.38,0,0,1-2.71-2.55C65.2,213.64,66.67,203.44,71.67,198.06Z"/><path class="cls-25" d="M90.8,211.3c-.62-1.23,6.49,2.7,6.49,2.7s-.87,22.05,3.41,26.08c0,0-1.27.58-3.42,1.3-2.47-7.38-1.91-17.33-2.36-20.79C94.3,215.84,91.42,212.54,90.8,211.3Z"/><path class="cls-20" d="M331.51,274.46c0,.34,0,.72-.07,1.12a3,3,0,0,1-1.75,2.08,1.35,1.35,0,0,1,.44.11c2.16.93,3.39,1.17,5.48.28a.69.69,0,0,1,.49,0c-.09-1-.29-2.5-.45-3.57Z"/><path class="cls-11" d="M336.57,281.28c0-.89,0-1.89,0-2.64a.67.67,0,0,0-.94-.59c-2.1.89-3.33.66-5.49-.28-1.65-.73-7,2.27-8.33,3.14l0,0a.83.83,0,0,0,.48,1.52h13.07A1.24,1.24,0,0,0,336.57,281.28Z"/><path class="cls-20" d="M353.16,273.66c0,.34,0,.72-.08,1.12a3,3,0,0,1-1.74,2.08,1.23,1.23,0,0,1,.44.1c2.15.94,3.39,1.18,5.48.29a.73.73,0,0,1,.48,0c-.08-1-.28-2.49-.45-3.56Z"/><path class="cls-11" d="M358.21,280.48c.05-.89,0-1.89,0-2.64a.68.68,0,0,0-.94-.6c-2.1.9-3.33.66-5.49-.28-1.66-.72-7,2.27-8.34,3.15h0a.84.84,0,0,0,.48,1.53H357A1.24,1.24,0,0,0,358.21,280.48Z"/><path class="cls-5" d="M354.16,198.27c0,1.83,1.31,6.81,1.31,12.38,0,10.69-5.44,25-5.44,25l9.07,38.57-7.68.24-17-37.74,1.23-40.37Z"/><path class="cls-11" d="M348.05,196.1s-1.21,12.57-3.76,21.83c-2.14,7.74-17.62,19.49-17.62,19.49L336.72,275h-6.27L308,238.49a6.22,6.22,0,0,1,.25-4.79l21.44-40.92Z"/><path class="cls-20" d="M295.07,189.35H287s.4,4.82,8.78,4.82Z"/><path class="cls-20" d="M338.39,148.44a10.37,10.37,0,0,0,.13-2.11c-.24-2.49-1.73-2.93-3.45-1.39a7.06,7.06,0,0,1-2.42-2.9c-.5-1.15-2.65-.27-4.32-.6a9.53,9.53,0,0,0,2.93,10.62,5.78,5.78,0,0,0,3.86,1l.41,6.22,7.55-2-.11-3.66A4.45,4.45,0,0,1,338.39,148.44Z"/><path class="cls-26" d="M332.53,275c-1.6-2.7-21.31-36.3-18.41-40.4,3-4.27,16.55-30.78,16.55-30.78l-3.2-4.1-2.5,2.06L308.23,233.7a6.22,6.22,0,0,0-.25,4.79L330.45,275Z"/><path class="cls-4" d="M329.91,165.91c.41-7.68,12.36-8.28,13.64-8.3a6,6,0,0,1,4.41,2.1c1.92,2.13,5.55,6.79,4.39,13.35-3,16.83,3.2,27.56,4,32.84-11.11,4.5-34.64-1.08-34.64-1.08l7.18-27.35Z"/><path class="cls-4" d="M321,184.26s7.31-26.53,16.64-25C348,160.94,331,193.87,331,193.87l-35.23.71L295,189Z"/><path class="cls-24" d="M336.27,193c-1.73,5.22-7.47,4.8-7.47,4.8l-3.2,7.85c-2.41-.45-3.89-.8-3.89-.8L324.54,194l6.42-.13s11.82-22.91,9.76-31.49C341.09,163.12,343.89,170,336.27,193Z"/><path class="cls-5" d="M346.24,175.31c-11.92-.61-7.89-23.82-7.76-28.31.08-2.5-1.69-3.6-3.42-2.06a7.08,7.08,0,0,1-2.41-2.9c-.51-1.15-3.17-.27-4.85-.6,3.41-13.73,19.51-13.08,26.63,5.49C360.57,163,365.28,176.29,346.24,175.31Z"/><path class="cls-23" d="M336.14,154.34a27.54,27.54,0,0,0,1.57-2.8,9.71,9.71,0,0,1-2.33,1.42l-.26.12.41,6.22.85-.23C336.18,157.19,336,154.53,336.14,154.34Z"/><path class="cls-25" d="M327.65,172.47a25.06,25.06,0,0,1,7.56-13c-8.13,2.74-14.21,24.78-14.21,24.78L295,189l29.07-1.73S325.87,180.83,327.65,172.47Z"/><path class="cls-18" d="M340.82,135.45c8.66,3.89,13.63,18,11.25,39.62,12.06-2,7.77-14,2.36-28.14-7.12-18.57-23.22-19.22-26.63-5.49C327.8,141.44,332.1,131.54,340.82,135.45Z"/><path class="cls-4" d="M415.56,202.32c-.57,3.06-10.62,20.77-16.83,32.63a33.2,33.2,0,0,0-3.14,21.49h1.19c-.71-4.1-1-3.47,0-9.86,1.13-7,12.09-11.89,19-25.4S416.12,199.26,415.56,202.32Z"/><path class="cls-4" d="M392.46,249.17c.35,3.36.63,5.68.75,7.27h.61c.2-5.7.55-15.55.31-22.12-.34-9.69,2.33-13.69,3.83-30s-2.73-39.46-2.73-39.46-10.15,20.75-6.61,43.84S390.92,234.35,392.46,249.17Z"/><path class="cls-4" d="M389.59,245.91a84.92,84.92,0,0,0,1.07,10.53h.64c-.11-1.69-.23-4.8-.36-10.32-.39-16.73-2.1-16.54-5-27.73s-7.55-15.84-12.39-21.47c0,0-5,8,2.05,20s9.84,12.78,11.51,18.66S389.48,240.66,389.59,245.91Z"/><path class="cls-4" d="M387.94,256.44h.7a13.45,13.45,0,0,0-1.51-8.9c-3.21-5.44-5.71-12.62-10.67-17.36C369.69,223.7,365,207.51,365,207.51s-3.55,14.38,3.33,25.78S381,246.85,384,248.71A8.49,8.49,0,0,1,387.94,256.44Z"/><path class="cls-7" d="M393.25,256.44h.11l.53-2.22c.2-5.8.45-14.12.24-19.9-.34-9.69,2.33-13.69,3.83-30s-2.73-39.46-2.73-39.46-3.86,32.22-2.79,47C393.42,225.51,393.28,252.48,393.25,256.44Z"/><path class="cls-7" d="M415.94,201.72c.1,4.35-.25,19.14-8.95,27-10.09,9.11-13.31,19.17-10.3,27.72h.09c-.71-4.1-1-3.47,0-9.86,1.13-7,12.09-11.89,19-25.4C421.91,209.17,417.41,201.19,415.94,201.72Z"/><path class="cls-7" d="M391,256.44h.34c-.11-1.69-.23-4.8-.36-10.32-.39-16.73-2.1-16.54-5-27.73s-7.55-15.84-12.39-21.47a41.55,41.55,0,0,0,7,21.81c7.21,10.69,9.22,18.57,9.42,21.53C390.13,242.7,390.75,252.93,391,256.44Z"/><path class="cls-7" d="M388.09,256.44h.55a13.45,13.45,0,0,0-1.51-8.9c-3.21-5.44-5.71-12.62-10.67-17.36C369.69,223.7,365,207.51,365,207.51s.22,18.33,5.56,23.67,5.21,3.8,9.35,9.08,5.4,6.75,7,10A14.52,14.52,0,0,1,388.09,256.44Z"/><path class="cls-27" d="M401.24,253.49H382.52a3,3,0,0,0-3,3.61l3.67,19.19a3.05,3.05,0,0,0,3,2.48h11.38a3,3,0,0,0,3-2.48l3.67-19.19A3,3,0,0,0,401.24,253.49Z"/><path class="cls-28" d="M404.19,255.8a3,3,0,0,0-2.95-2.31H382.52a3.05,3.05,0,0,0-2.95,2.31Z"/><path class="cls-28" d="M401.24,253.49h-4.15a3,3,0,0,1,3,3.61l-3.67,19.19a3,3,0,0,1-3,2.48h4.15a3,3,0,0,0,3-2.48l3.67-19.19A3,3,0,0,0,401.24,253.49Z"/></g></g></g></svg>