<svg xmlns="http://www.w3.org/2000/svg" viewBox="0 0 699.37 70.07"><defs><style>.cls-1{fill:#fff;}</style></defs><title>headertitle</title><g id="Layer_2" data-name="Layer 2"><g id="Layer_1-2" data-name="Layer 1"><path class="cls-1" d="M20.46,4.05c2.5,0,4.43,1.42,5.76,4.25l.44,1.95c0,2.58-1.55,4.69-4.64,6.35q-9.61,7.23-9.62,18.61,0,11.57,10.4,18.94a22.34,22.34,0,0,0,11.48,3.42h1.27q5.72,0,12.3-3.76a8.31,8.31,0,0,1,1.86-.25q4.09,0,5.86,4.79a6.9,6.9,0,0,1,.24,1.56q0,6.84-16.6,9.82a30.65,30.65,0,0,1-4.35.34q-14.1,0-25.14-10.89Q0,48.49,0,35.55v-.93Q0,20.31,11.72,9,17.52,4.06,20.46,4.05ZM36,.1c2.63,0,4.62,1.51,6,4.54.16,1,.25,1.59.25,1.76,0,2.76-1.52,4.72-4.54,5.86a6,6,0,0,1-1.76.34q-3.91,0-5.86-4.45a11.79,11.79,0,0,1-.34-1.85q0-3.76,4.29-5.86A15.41,15.41,0,0,1,36,.1Z"/><path class="cls-1" d="M69.14,57.76q4.78,1.82,4.79,5.86c0,.13,0,.61-.1,1.42-1.21,3.35-3.27,5-6.2,5A8.58,8.58,0,0,1,65,69.38q-3.62-2.14-3.61-5.61a13.37,13.37,0,0,1,.48-2q1.91-4.2,5.72-4.2A8.89,8.89,0,0,1,69.14,57.76ZM100.39,2.69q1.17,2.23,24.81,51.36,4.1,8.12,4.1,9.82L129,65.53c-1.27,3-3.23,4.54-5.86,4.54a6.61,6.61,0,0,1-4.79-2.25Q116.75,65.48,95.61,21h-.25q-.54.82-8.3,17.53Q84.72,45,80.27,45a10.82,10.82,0,0,1-1.31-.1c-3.36-1.14-5-3.09-5-5.86v-.49a2.73,2.73,0,0,1,.24-1.27Q74.26,36.43,88,7.71,90.53.1,95.36.1A6.88,6.88,0,0,1,100.39,2.69Z"/><path class="cls-1" d="M141.11.2q4.11,0,7.43,5.76L167.38,31Q188.88,2.39,189.7,1.56a7.2,7.2,0,0,1,4-1.36c3.06,0,5.16,1.7,6.3,5.12a8,8,0,0,1,.15,1.32q0,2.93-6.69,11-17.34,23.54-21.78,29.05-1.17,1.27-4.3,1.71-3.9,0-7.42-5.81L147.71,26.37h-.15V63.72q0,4.16-4.49,6a5.47,5.47,0,0,1-1.81.34H141q-4.46,0-6.25-5.13a10.82,10.82,0,0,1-.1-1.32v-57q0-4.59,5.12-6.3A7.78,7.78,0,0,1,141.11.2Z"/><path class="cls-1" d="M211,0q3.94,0,5.85,4.59l.35,1.61q0,3.77-4.25,6l-2.1.34q-3.76,0-5.71-4.1a6,6,0,0,1-.49-2.35q0-3.85,4.44-5.76A10.84,10.84,0,0,1,211,0ZM229,0h4.54q15.33,0,20.41,15.33a41.5,41.5,0,0,1,.83,5.86q0,10.35-8.79,16.9a22.11,22.11,0,0,1-11.28,3.17H218.16V62.94q0,4.94-4.2,6.79c-1.26.23-2,.34-2.14.34q-4,0-6-4.59a14.09,14.09,0,0,1-.24-2.2v-28c0-2.83,1.44-4.85,4.34-6.05a4.57,4.57,0,0,1,1.76-.39H233.5q8.69,0,8.69-7.23v-.49q0-6-5.18-8.2a7.3,7.3,0,0,0-2.34-.34H229q-5.19,0-6.69-4.84A5.75,5.75,0,0,1,222,6.1q0-4,4.84-5.86A10,10,0,0,1,229,0Z"/><path class="cls-1" d="M267.09.2A6.56,6.56,0,0,1,272,7V44.92a12.84,12.84,0,0,0,1.52,6q4.29,6.73,12.84,6.74a15.34,15.34,0,0,0,10.79-4q3.75-3,3.76-10.93V35a7.83,7.83,0,0,1,.14-1.27q1.86-4.94,6.11-4.93a5.69,5.69,0,0,1,1.76.34q4.44,1.76,4.44,6v9a26,26,0,0,1-4.69,15.19,27.31,27.31,0,0,1-22.22,10.69h-.24a35,35,0,0,1-9-1.42Q259.43,62,259.42,43.12V6.93a7.56,7.56,0,0,1,.25-2Q261.42.1,265.53.1h.34ZM309,.44q4.35,1.8,4.35,5.76v.25a6.33,6.33,0,0,1-.2,1.41c-1.1,3.13-3.11,4.69-6,4.69a10.82,10.82,0,0,1-1.32-.1q-4.94-1.75-4.93-5.91V6.1A5.33,5.33,0,0,1,301.07,5C302.18,1.74,304.21.1,307.18.1h.1A5,5,0,0,1,309,.44Z"/><path class="cls-1" d="M340.53.15h1.32q9.16,0,17,6.78a20.71,20.71,0,0,1,6.2,14.65q0,4.2-4.64,5.91a3.7,3.7,0,0,0-1.22.24,6.11,6.11,0,0,1-5.37-3.36,15.58,15.58,0,0,1-.88-5.08,8.87,8.87,0,0,0-4.35-5.47,15,15,0,0,0-7.52-1.91q-8,0-10.69,6.25a11.62,11.62,0,0,0-.54,3.76v.44q0,2.2,4.1,4.35a6.55,6.55,0,0,1,2.2,4.54q0,3.7-4.1,5.57a4.78,4.78,0,0,1-1.66.34h-.24q-3.68,0-9.33-6.11A16.58,16.58,0,0,1,318,22q0-11.56,10-18.31A25.06,25.06,0,0,1,340.53.15ZM356.45,35.6q4.14,0,7.42,6.69a16.31,16.31,0,0,1,1.22,5.9q0,10.61-8.79,17.34a25.77,25.77,0,0,1-14.55,4.54h-.44a23.6,23.6,0,0,1-19.43-9.47A21.68,21.68,0,0,1,318,48.29q0-3.81,4-5.66a8.94,8.94,0,0,1,1.91-.44q4.1,0,5.76,4.54a19,19,0,0,0,1,5.66q3.27,5.91,10.89,5.91,8.31,0,11.23-6.79a11.51,11.51,0,0,0,.44-3.12v-.54c0-.68-.67-1.84-2-3.47a6.5,6.5,0,0,1-.78-2.88c0-2.6,1.45-4.46,4.35-5.56A6.91,6.91,0,0,1,356.45,35.6Zm-13-5.67h.44q4,0,5.56,4.79a6.83,6.83,0,0,1,.15,1.22c0,2.67-1.6,4.56-4.78,5.66a9.74,9.74,0,0,1-1.23.1q-4.05,0-5.66-4.64a4.19,4.19,0,0,1-.15-1V35.6q0-3.81,4.35-5.42A4.36,4.36,0,0,1,343.41,29.93Z"/><path class="cls-1" d="M376.51.1h.1c2.93,0,5,1.59,6.1,4.78A11,11,0,0,1,383,7.23V62.94q0,5.52-4.84,6.88a3.4,3.4,0,0,1-1.51.25h-.1q-3.81,0-5.76-4.35a7.84,7.84,0,0,1-.34-2.1V6.54q0-4.49,4.69-6.2A5.19,5.19,0,0,1,376.51.1Z"/><path class="cls-1" d="M394,.1q3.32,0,7.37,5.52l36.62,41.5h.24V6.2q0-4,4.45-5.76A5.55,5.55,0,0,1,444.38.1q4.2,0,6.11,4.93l.1,1.37V63.77q0,4.35-4.79,6l-1.42.25q-3.36,0-6.78-4.69Q402.1,25.2,400.39,23.05h-.34V40.92q0,5-5.71,6.35h-.59q-4.31,0-6-4.94a7.54,7.54,0,0,1-.09-1V6.3q0-4.24,4.78-6A8.16,8.16,0,0,1,394,.1Zm.24,57.47c2,0,3.77,1.09,5.27,3.27a6.8,6.8,0,0,1,.83,3q0,4.09-4.59,5.86a5.44,5.44,0,0,1-1.75.34c-2.64,0-4.58-1.52-5.82-4.54-.26-1-.39-1.57-.39-1.66,0-2.87,1.62-4.9,4.84-6.11A14,14,0,0,1,394.19,57.57Z"/><path class="cls-1" d="M479.2.15h1.32q9.18,0,17,6.78a20.71,20.71,0,0,1,6.2,14.65q0,4.2-4.64,5.91a3.7,3.7,0,0,0-1.22.24q-3.31,0-5.37-3.36a15.86,15.86,0,0,1-.88-5.08,8.87,8.87,0,0,0-4.35-5.47,15,15,0,0,0-7.51-1.91q-8,0-10.7,6.25a11.62,11.62,0,0,0-.54,3.76v.44q0,2.2,4.11,4.35a6.58,6.58,0,0,1,2.19,4.54c0,2.47-1.36,4.33-4.1,5.57a4.73,4.73,0,0,1-1.66.34h-.24q-3.66,0-9.33-6.11a16.58,16.58,0,0,1-2.88-9q0-11.56,10-18.31A25.09,25.09,0,0,1,479.2.15ZM495.12,35.6q4.14,0,7.42,6.69a16.31,16.31,0,0,1,1.22,5.9q0,10.61-8.79,17.34a25.72,25.72,0,0,1-14.55,4.54H480a23.6,23.6,0,0,1-19.43-9.47,21.68,21.68,0,0,1-3.91-12.31q0-3.81,4-5.66a8.94,8.94,0,0,1,1.91-.44q4.09,0,5.76,4.54a18.56,18.56,0,0,0,1,5.66q3.27,5.91,10.88,5.91,8.31,0,11.24-6.79a11.89,11.89,0,0,0,.43-3.12v-.54c0-.68-.66-1.84-2-3.47a6.5,6.5,0,0,1-.78-2.88c0-2.6,1.45-4.46,4.35-5.56A7,7,0,0,1,495.12,35.6Zm-13-5.67h.44c2.67,0,4.52,1.6,5.57,4.79a7.67,7.67,0,0,1,.14,1.22q0,4-4.78,5.66a9.6,9.6,0,0,1-1.22.1c-2.71,0-4.59-1.55-5.67-4.64a4.12,4.12,0,0,1-.14-1V35.6c0-2.54,1.44-4.35,4.34-5.42A4.36,4.36,0,0,1,482.08,29.93Z"/><path class="cls-1" d="M515.43,0q4,0,5.86,4.59l.34,1.61q0,3.77-4.25,6l-2.1.34c-2.5,0-4.41-1.37-5.71-4.1a6,6,0,0,1-.49-2.35q0-3.85,4.45-5.76A10.78,10.78,0,0,1,515.43,0Zm17.92,0h4.54q15.33,0,20.41,15.33a40.09,40.09,0,0,1,.83,5.86q0,10.35-8.79,16.9a22.05,22.05,0,0,1-11.28,3.17h-16.5V62.94q0,4.94-4.2,6.79c-1.27.23-2,.34-2.15.34-2.64,0-4.62-1.53-6-4.59a14.09,14.09,0,0,1-.24-2.2v-28q0-4.24,4.35-6.05a4.49,4.49,0,0,1,1.75-.39h21.78q8.68,0,8.69-7.23v-.49q0-6-5.17-8.2a7.41,7.41,0,0,0-2.35-.34h-5.71q-5.18,0-6.69-4.84a6.1,6.1,0,0,1-.24-1.61q0-4,4.83-5.86A10.1,10.1,0,0,1,533.35,0Z"/><path class="cls-1" d="M569.92.1h.1q4.4,0,6.1,4.78a11,11,0,0,1,.25,2.35V62.94q0,5.52-4.84,6.88a3.4,3.4,0,0,1-1.51.25h-.1q-3.81,0-5.76-4.35a7.84,7.84,0,0,1-.34-2.1V6.54q0-4.49,4.69-6.2A5.19,5.19,0,0,1,569.92.1Z"/><path class="cls-1" d="M587.16.1h.1q4.4,0,6.1,4.78a11.72,11.72,0,0,1,.24,2.35V62.94q0,5.52-4.83,6.88a3.43,3.43,0,0,1-1.51.25h-.1q-3.81,0-5.76-4.35a7.89,7.89,0,0,1-.35-2.1V6.54c0-3,1.57-5.06,4.69-6.2A5.25,5.25,0,0,1,587.16.1Z"/><path class="cls-1" d="M641.11.34q4.78,1.81,4.79,5.86a10.19,10.19,0,0,1-.2,1.86,6.53,6.53,0,0,1-6.59,4.54H605.18a11.33,11.33,0,0,1-2.93-.44q-4-2.21-4-5.86l.49-2.1a6.44,6.44,0,0,1,6.4-4.1H639A10.56,10.56,0,0,1,641.11.34ZM606.49,29.25c2.87,1.3,4.3,3.21,4.3,5.71a10.63,10.63,0,0,1-.19,1.66q-1.86,4.7-5.86,4.69h-.15a8.48,8.48,0,0,1-1.76-.25q-4.55-2-4.54-6l.25-1.37q1.69-4.83,6.05-4.83h.15A4.77,4.77,0,0,1,606.49,29.25Zm34.62,28.51q4.78,1.77,4.79,5.86a14.91,14.91,0,0,1-.1,1.52A6.6,6.6,0,0,1,639,70.07H605.18a7.88,7.88,0,0,1-2.79-.49c-2.73-1.37-4.1-3.3-4.1-5.81a9,9,0,0,0,.25-1.17q1.37-5,6.64-5h33.93A9.7,9.7,0,0,1,641.11,57.76ZM641,29q4.88,1.71,4.88,6v.25a5.55,5.55,0,0,1-.34,1.75c-1.14,2.9-3.1,4.35-5.86,4.35H622.17a7.78,7.78,0,0,1-1.32-.15C617.59,40,616,38.07,616,35.3v-.44a5,5,0,0,1,.34-1.75c1.2-2.84,3.16-4.25,5.86-4.25H639.7A9,9,0,0,1,641,29Z"/><path class="cls-1" d="M677.39,0h1.86Q692.38,0,698,13.28A25.28,25.28,0,0,1,699.37,21q0,10-8.55,16.41c-1.79.91-2.69,1.45-2.69,1.61q10.7,22.27,11,23.49a6.27,6.27,0,0,1,.25,1.37q0,4.24-5,6l-1.36.1q-4.54,0-7.18-7.52l-10.5-21.83H663.28V45.9q0,4.79-5.17,6.35h-1q-4.2,0-5.91-4.74a11,11,0,0,1-.24-2.3V21.29q0-5.41,4.83-6.93l1.17-.15h.35q3.75,0,5.66,4.3a7.84,7.84,0,0,1,.34,2.1v7.71h16.8q5.91,0,6.93-6.25V20.46a7.88,7.88,0,0,0-5.32-7.86,6.21,6.21,0,0,0-1.61-.25h-1.52q-5.22,0-6.93-3.81A12.41,12.41,0,0,1,671,6.15c0-2.57,1.44-4.51,4.3-5.81A7.82,7.82,0,0,1,677.39,0ZM657.08,57.71c2.34,0,4.23,1.23,5.66,3.67a7.78,7.78,0,0,1,.54,2.68q0,3.91-4.59,5.76a8.39,8.39,0,0,1-1.76.25q-3.95,0-5.76-4.74l-.24-1.41q0-3.77,4.15-5.77A20.37,20.37,0,0,1,657.08,57.71Z"/></g></g></svg>