<?xml version="1.0" encoding="utf-8"?>
<svg xmlns="http://www.w3.org/2000/svg" xmlns:xlink="http://www.w3.org/1999/xlink" style="background: rgb(227, 227, 198); display: block; position: relative; shape-rendering: auto;" width="435" height="435" preserveAspectRatio="xMidYMid" viewBox="0 0 435 435"><g transform="scale(1.7000000000000002)"><defs>
  <filter id="pat-0.6438277736692071" x="-100%" y="-100%" width="300%" height="300%" color-interpolation-filters="sRGB">
    <feGaussianBlur in="SourceGraphic" stdDeviation="13.040000000000001"></feGaussianBlur>
    <feComponentTransfer result="cutoff">
      <feFuncA type="linear" slope="60" intercept="-40"></feFuncA>
    </feComponentTransfer>
  </filter>
</defs><g filter="url(#f)"><g style="isolation:isolate" filter="url(#pat-0.6438277736692071)">
<rect x="0" y="0" width="256" height="256" fill="none"></rect><g>
  <circle cx="-192.2154922694919" cy="-20.349718004920362" r="23.636029600548987" fill="undefined"></circle> <circle cx="63.784507730508096" cy="-20.349718004920362" r="23.636029600548987" fill="undefined"></circle> <circle cx="319.7845077305081" cy="-20.349718004920362" r="23.636029600548987" fill="undefined"></circle> <circle cx="-192.2154922694919" cy="235.65028199507964" r="23.636029600548987" fill="undefined"></circle> <circle cx="63.784507730508096" cy="235.65028199507964" r="23.636029600548987" fill="undefined"></circle> <circle cx="319.7845077305081" cy="235.65028199507964" r="23.636029600548987" fill="undefined"></circle> <circle cx="-192.2154922694919" cy="491.65028199507964" r="23.636029600548987" fill="undefined"></circle> <circle cx="63.784507730508096" cy="491.65028199507964" r="23.636029600548987" fill="undefined"></circle> <circle cx="319.7845077305081" cy="491.65028199507964" r="23.636029600548987" fill="undefined"></circle> <circle cx="-192.2154922694919" cy="747.6502819950797" r="23.636029600548987" fill="undefined"></circle> <circle cx="63.784507730508096" cy="747.6502819950797" r="23.636029600548987" fill="undefined"></circle> <circle cx="319.7845077305081" cy="747.6502819950797" r="23.636029600548987" fill="undefined"></circle> <circle cx="-192.65254165094757" cy="30.665245292653537" r="34.42009243036826" fill="undefined"></circle> <circle cx="63.34745834905243" cy="30.665245292653537" r="34.42009243036826" fill="undefined"></circle> <circle cx="319.34745834905243" cy="30.665245292653537" r="34.42009243036826" fill="undefined"></circle> <circle cx="-192.65254165094757" cy="286.66524529265354" r="34.42009243036826" fill="undefined"></circle> <circle cx="63.34745834905243" cy="286.66524529265354" r="34.42009243036826" fill="undefined"></circle> <circle cx="319.34745834905243" cy="286.66524529265354" r="34.42009243036826" fill="undefined"></circle> <circle cx="-192.65254165094757" cy="542.6652452926535" r="34.42009243036826" fill="undefined"></circle> <circle cx="63.34745834905243" cy="542.6652452926535" r="34.42009243036826" fill="undefined"></circle> <circle cx="319.34745834905243" cy="542.6652452926535" r="34.42009243036826" fill="undefined"></circle> <circle cx="-244.51667028291445" cy="170.19841914435756" r="41.708192935483765" fill="undefined"></circle> <circle cx="11.483329717085553" cy="170.19841914435756" r="41.708192935483765" fill="undefined"></circle> <circle cx="267.48332971708555" cy="170.19841914435756" r="41.708192935483765" fill="undefined"></circle> <circle cx="-244.51667028291445" cy="426.19841914435756" r="41.708192935483765" fill="undefined"></circle> <circle cx="11.483329717085553" cy="426.19841914435756" r="41.708192935483765" fill="undefined"></circle> <circle cx="267.48332971708555" cy="426.19841914435756" r="41.708192935483765" fill="undefined"></circle> <circle cx="-244.51667028291445" cy="682.1984191443576" r="41.708192935483765" fill="undefined"></circle> <circle cx="11.483329717085553" cy="682.1984191443576" r="41.708192935483765" fill="undefined"></circle> <circle cx="267.48332971708555" cy="682.1984191443576" r="41.708192935483765" fill="undefined"></circle> <circle cx="-81.73927550536092" cy="30.85811785892838" r="16.1081282955571" fill="undefined"></circle> <circle cx="174.26072449463908" cy="30.85811785892838" r="16.1081282955571" fill="undefined"></circle> <circle cx="430.2607244946391" cy="30.85811785892838" r="16.1081282955571" fill="undefined"></circle> <circle cx="-81.73927550536092" cy="286.8581178589284" r="16.1081282955571" fill="undefined"></circle> <circle cx="174.26072449463908" cy="286.8581178589284" r="16.1081282955571" fill="undefined"></circle> <circle cx="430.2607244946391" cy="286.8581178589284" r="16.1081282955571" fill="undefined"></circle> <circle cx="-81.73927550536092" cy="542.8581178589284" r="16.1081282955571" fill="undefined"></circle> <circle cx="174.26072449463908" cy="542.8581178589284" r="16.1081282955571" fill="undefined"></circle> <circle cx="430.2607244946391" cy="542.8581178589284" r="16.1081282955571" fill="undefined"></circle> <circle cx="-163.64982228856604" cy="60.70774673388797" r="16.103433727154442" fill="undefined"></circle> <circle cx="92.35017771143396" cy="60.70774673388797" r="16.103433727154442" fill="undefined"></circle> <circle cx="348.35017771143396" cy="60.70774673388797" r="16.103433727154442" fill="undefined"></circle> <circle cx="-163.64982228856604" cy="316.707746733888" r="16.103433727154442" fill="undefined"></circle> <circle cx="92.35017771143396" cy="316.707746733888" r="16.103433727154442" fill="undefined"></circle> <circle cx="348.35017771143396" cy="316.707746733888" r="16.103433727154442" fill="undefined"></circle> <circle cx="-163.64982228856604" cy="572.7077467338879" r="16.103433727154442" fill="undefined"></circle> <circle cx="92.35017771143396" cy="572.7077467338879" r="16.103433727154442" fill="undefined"></circle> <circle cx="348.35017771143396" cy="572.7077467338879" r="16.103433727154442" fill="undefined"></circle> 
  <animateTransform attributeName="transform" type="translate" dur="5.88235294117647s" repeatCount="indefinite" keyTimes="0;1" values="0 0;0 -256"></animateTransform>
</g><g>
  <circle cx="-118.71041291390162" cy="45.194029582641065" r="31.270004022936497" fill="undefined"></circle> <circle cx="137.28958708609838" cy="45.194029582641065" r="31.270004022936497" fill="undefined"></circle> <circle cx="393.2895870860984" cy="45.194029582641065" r="31.270004022936497" fill="undefined"></circle> <circle cx="-118.71041291390162" cy="301.19402958264106" r="31.270004022936497" fill="undefined"></circle> <circle cx="137.28958708609838" cy="301.19402958264106" r="31.270004022936497" fill="undefined"></circle> <circle cx="393.2895870860984" cy="301.19402958264106" r="31.270004022936497" fill="undefined"></circle> <circle cx="-118.71041291390162" cy="557.1940295826411" r="31.270004022936497" fill="undefined"></circle> <circle cx="137.28958708609838" cy="557.1940295826411" r="31.270004022936497" fill="undefined"></circle> <circle cx="393.2895870860984" cy="557.1940295826411" r="31.270004022936497" fill="undefined"></circle> <circle cx="-250.59009721568958" cy="161.08752614014492" r="35.365292570848" fill="undefined"></circle> <circle cx="5.409902784310418" cy="161.08752614014492" r="35.365292570848" fill="undefined"></circle> <circle cx="261.4099027843104" cy="161.08752614014492" r="35.365292570848" fill="undefined"></circle> <circle cx="-250.59009721568958" cy="417.0875261401449" r="35.365292570848" fill="undefined"></circle> <circle cx="5.409902784310418" cy="417.0875261401449" r="35.365292570848" fill="undefined"></circle> <circle cx="261.4099027843104" cy="417.0875261401449" r="35.365292570848" fill="undefined"></circle> <circle cx="-250.59009721568958" cy="673.087526140145" r="35.365292570848" fill="undefined"></circle> <circle cx="5.409902784310418" cy="673.087526140145" r="35.365292570848" fill="undefined"></circle> <circle cx="261.4099027843104" cy="673.087526140145" r="35.365292570848" fill="undefined"></circle> <circle cx="-42.66611929573338" cy="66.75895531869418" r="13.517448385502643" fill="undefined"></circle> <circle cx="213.33388070426662" cy="66.75895531869418" r="13.517448385502643" fill="undefined"></circle> <circle cx="469.3338807042666" cy="66.75895531869418" r="13.517448385502643" fill="undefined"></circle> <circle cx="-42.66611929573338" cy="322.7589553186942" r="13.517448385502643" fill="undefined"></circle> <circle cx="213.33388070426662" cy="322.7589553186942" r="13.517448385502643" fill="undefined"></circle> <circle cx="469.3338807042666" cy="322.7589553186942" r="13.517448385502643" fill="undefined"></circle> <circle cx="-42.66611929573338" cy="578.7589553186942" r="13.517448385502643" fill="undefined"></circle> <circle cx="213.33388070426662" cy="578.7589553186942" r="13.517448385502643" fill="undefined"></circle> <circle cx="469.3338807042666" cy="578.7589553186942" r="13.517448385502643" fill="undefined"></circle> <circle cx="-184.30092473542442" cy="207.41624807306601" r="15.753230574395563" fill="undefined"></circle> <circle cx="71.69907526457558" cy="207.41624807306601" r="15.753230574395563" fill="undefined"></circle> <circle cx="327.6990752645756" cy="207.41624807306601" r="15.753230574395563" fill="undefined"></circle> <circle cx="-184.30092473542442" cy="463.416248073066" r="15.753230574395563" fill="undefined"></circle> <circle cx="71.69907526457558" cy="463.416248073066" r="15.753230574395563" fill="undefined"></circle> <circle cx="327.6990752645756" cy="463.416248073066" r="15.753230574395563" fill="undefined"></circle> <circle cx="-184.30092473542442" cy="719.4162480730661" r="15.753230574395563" fill="undefined"></circle> <circle cx="71.69907526457558" cy="719.4162480730661" r="15.753230574395563" fill="undefined"></circle> <circle cx="327.6990752645756" cy="719.4162480730661" r="15.753230574395563" fill="undefined"></circle> 
  <animateTransform attributeName="transform" type="translate" dur="2.941176470588235s" repeatCount="indefinite" keyTimes="0;1" values="0 0;0 -256"></animateTransform>
</g><g>
  <circle cx="-36.51546023443052" cy="92.7009000358579" r="41.06691751111054" fill="undefined"></circle> <circle cx="219.48453976556948" cy="92.7009000358579" r="41.06691751111054" fill="undefined"></circle> <circle cx="475.4845397655695" cy="92.7009000358579" r="41.06691751111054" fill="undefined"></circle> <circle cx="-36.51546023443052" cy="348.7009000358579" r="41.06691751111054" fill="undefined"></circle> <circle cx="219.48453976556948" cy="348.7009000358579" r="41.06691751111054" fill="undefined"></circle> <circle cx="475.4845397655695" cy="348.7009000358579" r="41.06691751111054" fill="undefined"></circle> <circle cx="-36.51546023443052" cy="604.7009000358579" r="41.06691751111054" fill="undefined"></circle> <circle cx="219.48453976556948" cy="604.7009000358579" r="41.06691751111054" fill="undefined"></circle> <circle cx="475.4845397655695" cy="604.7009000358579" r="41.06691751111054" fill="undefined"></circle> <circle cx="-15.902316958855351" cy="217.81785875306412" r="26.928794262425235" fill="undefined"></circle> <circle cx="240.09768304114465" cy="217.81785875306412" r="26.928794262425235" fill="undefined"></circle> <circle cx="496.09768304114465" cy="217.81785875306412" r="26.928794262425235" fill="undefined"></circle> <circle cx="-15.902316958855351" cy="473.8178587530641" r="26.928794262425235" fill="undefined"></circle> <circle cx="240.09768304114465" cy="473.8178587530641" r="26.928794262425235" fill="undefined"></circle> <circle cx="496.09768304114465" cy="473.8178587530641" r="26.928794262425235" fill="undefined"></circle> <circle cx="-15.902316958855351" cy="729.8178587530641" r="26.928794262425235" fill="undefined"></circle> <circle cx="240.09768304114465" cy="729.8178587530641" r="26.928794262425235" fill="undefined"></circle> <circle cx="496.09768304114465" cy="729.8178587530641" r="26.928794262425235" fill="undefined"></circle> <circle cx="-40.52537278847092" cy="187.09916451795516" r="29.103581702625647" fill="undefined"></circle> <circle cx="215.47462721152908" cy="187.09916451795516" r="29.103581702625647" fill="undefined"></circle> <circle cx="471.4746272115291" cy="187.09916451795516" r="29.103581702625647" fill="undefined"></circle> <circle cx="-40.52537278847092" cy="443.09916451795516" r="29.103581702625647" fill="undefined"></circle> <circle cx="215.47462721152908" cy="443.09916451795516" r="29.103581702625647" fill="undefined"></circle> <circle cx="471.4746272115291" cy="443.09916451795516" r="29.103581702625647" fill="undefined"></circle> <circle cx="-40.52537278847092" cy="699.0991645179552" r="29.103581702625647" fill="undefined"></circle> <circle cx="215.47462721152908" cy="699.0991645179552" r="29.103581702625647" fill="undefined"></circle> <circle cx="471.4746272115291" cy="699.0991645179552" r="29.103581702625647" fill="undefined"></circle> <circle cx="-27.215172537677233" cy="210.81897405855932" r="15.594377197301394" fill="undefined"></circle> <circle cx="228.78482746232277" cy="210.81897405855932" r="15.594377197301394" fill="undefined"></circle> <circle cx="484.78482746232277" cy="210.81897405855932" r="15.594377197301394" fill="undefined"></circle> <circle cx="-27.215172537677233" cy="466.8189740585593" r="15.594377197301394" fill="undefined"></circle> <circle cx="228.78482746232277" cy="466.8189740585593" r="15.594377197301394" fill="undefined"></circle> <circle cx="484.78482746232277" cy="466.8189740585593" r="15.594377197301394" fill="undefined"></circle> <circle cx="-27.215172537677233" cy="722.8189740585593" r="15.594377197301394" fill="undefined"></circle> <circle cx="228.78482746232277" cy="722.8189740585593" r="15.594377197301394" fill="undefined"></circle> <circle cx="484.78482746232277" cy="722.8189740585593" r="15.594377197301394" fill="undefined"></circle> 
  <animateTransform attributeName="transform" type="translate" dur="1.9607843137254901s" repeatCount="indefinite" keyTimes="0;1" values="0 0;0 -256"></animateTransform>
</g></g></g><filter id="f">
<feDiffuseLighting lighting-color="#e3e3c6" surfaceScale="2.24" result="light">
  <feDistantLight azimuth="45" elevation="60"></feDistantLight>
</feDiffuseLighting>
</filter></g></svg>