<?xml version="1.0" encoding="utf-8"?>
<svg xmlns="http://www.w3.org/2000/svg" xmlns:xlink="http://www.w3.org/1999/xlink" style="background: rgb(241, 242, 243); display: block; position: relative; shape-rendering: auto;" width="320" height="320" preserveAspectRatio="xMidYMid" viewBox="0 0 320 320"><g transform="scale(1.2500000000000002)"><defs>
  <filter id="pat-0.9577171717154096" x="-100%" y="-100%" width="300%" height="300%" color-interpolation-filters="sRGB">
    <feGaussianBlur in="SourceGraphic" stdDeviation="6.68"></feGaussianBlur>
    <feComponentTransfer result="cutoff">
      <feFuncA type="linear" slope="60" intercept="-40"></feFuncA>
    </feComponentTransfer>
  </filter>
</defs><g style="isolation:isolate" filter="url(#pat-0.9577171717154096)"><g>
  <circle cx="-250.916828827132" cy="49.972282618820714" r="22.45218639992656" fill="#d8d9ff"></circle> <circle cx="5.083171172867992" cy="49.972282618820714" r="22.45218639992656" fill="#d8d9ff"></circle> <circle cx="261.083171172868" cy="49.972282618820714" r="22.45218639992656" fill="#d8d9ff"></circle> <circle cx="-250.916828827132" cy="305.9722826188207" r="22.45218639992656" fill="#d8d9ff"></circle> <circle cx="5.083171172867992" cy="305.9722826188207" r="22.45218639992656" fill="#d8d9ff"></circle> <circle cx="261.083171172868" cy="305.9722826188207" r="22.45218639992656" fill="#d8d9ff"></circle> <circle cx="-250.916828827132" cy="561.9722826188207" r="22.45218639992656" fill="#d8d9ff"></circle> <circle cx="5.083171172867992" cy="561.9722826188207" r="22.45218639992656" fill="#d8d9ff"></circle> <circle cx="261.083171172868" cy="561.9722826188207" r="22.45218639992656" fill="#d8d9ff"></circle> <circle cx="-62.87563925885752" cy="53.33090583206962" r="39.47049966171993" fill="#d8d9ff"></circle> <circle cx="193.12436074114248" cy="53.33090583206962" r="39.47049966171993" fill="#d8d9ff"></circle> <circle cx="449.1243607411425" cy="53.33090583206962" r="39.47049966171993" fill="#d8d9ff"></circle> <circle cx="-62.87563925885752" cy="309.3309058320696" r="39.47049966171993" fill="#d8d9ff"></circle> <circle cx="193.12436074114248" cy="309.3309058320696" r="39.47049966171993" fill="#d8d9ff"></circle> <circle cx="449.1243607411425" cy="309.3309058320696" r="39.47049966171993" fill="#d8d9ff"></circle> <circle cx="-62.87563925885752" cy="565.3309058320697" r="39.47049966171993" fill="#d8d9ff"></circle> <circle cx="193.12436074114248" cy="565.3309058320697" r="39.47049966171993" fill="#d8d9ff"></circle> <circle cx="449.1243607411425" cy="565.3309058320697" r="39.47049966171993" fill="#d8d9ff"></circle> 
  <animateTransform attributeName="transform" type="translate" dur="7.142857142857142s" repeatCount="indefinite" keyTimes="0;1" values="0 0;0 -256"></animateTransform>
</g><g>
  <circle cx="-86.41639110461438" cy="155.59158615043748" r="38.38275595554663" fill="#5177f4"></circle> <circle cx="169.58360889538562" cy="155.59158615043748" r="38.38275595554663" fill="#5177f4"></circle> <circle cx="425.5836088953856" cy="155.59158615043748" r="38.38275595554663" fill="#5177f4"></circle> <circle cx="-86.41639110461438" cy="411.5915861504375" r="38.38275595554663" fill="#5177f4"></circle> <circle cx="169.58360889538562" cy="411.5915861504375" r="38.38275595554663" fill="#5177f4"></circle> <circle cx="425.5836088953856" cy="411.5915861504375" r="38.38275595554663" fill="#5177f4"></circle> <circle cx="-86.41639110461438" cy="667.5915861504375" r="38.38275595554663" fill="#5177f4"></circle> <circle cx="169.58360889538562" cy="667.5915861504375" r="38.38275595554663" fill="#5177f4"></circle> <circle cx="425.5836088953856" cy="667.5915861504375" r="38.38275595554663" fill="#5177f4"></circle> <circle cx="-71.17702759687933" cy="15.801180181846803" r="38.75273428018376" fill="#5177f4"></circle> <circle cx="184.82297240312067" cy="15.801180181846803" r="38.75273428018376" fill="#5177f4"></circle> <circle cx="440.8229724031207" cy="15.801180181846803" r="38.75273428018376" fill="#5177f4"></circle> <circle cx="-71.17702759687933" cy="271.8011801818468" r="38.75273428018376" fill="#5177f4"></circle> <circle cx="184.82297240312067" cy="271.8011801818468" r="38.75273428018376" fill="#5177f4"></circle> <circle cx="440.8229724031207" cy="271.8011801818468" r="38.75273428018376" fill="#5177f4"></circle> <circle cx="-71.17702759687933" cy="527.8011801818468" r="38.75273428018376" fill="#5177f4"></circle> <circle cx="184.82297240312067" cy="527.8011801818468" r="38.75273428018376" fill="#5177f4"></circle> <circle cx="440.8229724031207" cy="527.8011801818468" r="38.75273428018376" fill="#5177f4"></circle> 
  <animateTransform attributeName="transform" type="translate" dur="3.571428571428571s" repeatCount="indefinite" keyTimes="0;1" values="0 0;0 -256"></animateTransform>
</g><g>
  <circle cx="-98.33955052866543" cy="39.600316013606175" r="49.09828949324819" fill="#d965ff"></circle> <circle cx="157.66044947133457" cy="39.600316013606175" r="49.09828949324819" fill="#d965ff"></circle> <circle cx="413.6604494713346" cy="39.600316013606175" r="49.09828949324819" fill="#d965ff"></circle> <circle cx="-98.33955052866543" cy="295.6003160136062" r="49.09828949324819" fill="#d965ff"></circle> <circle cx="157.66044947133457" cy="295.6003160136062" r="49.09828949324819" fill="#d965ff"></circle> <circle cx="413.6604494713346" cy="295.6003160136062" r="49.09828949324819" fill="#d965ff"></circle> <circle cx="-98.33955052866543" cy="551.6003160136062" r="49.09828949324819" fill="#d965ff"></circle> <circle cx="157.66044947133457" cy="551.6003160136062" r="49.09828949324819" fill="#d965ff"></circle> <circle cx="413.6604494713346" cy="551.6003160136062" r="49.09828949324819" fill="#d965ff"></circle> 
  <animateTransform attributeName="transform" type="translate" dur="2.380952380952381s" repeatCount="indefinite" keyTimes="0;1" values="0 0;0 -256"></animateTransform>
</g></g></g></svg>