<svg width="7" height="72" viewBox="0 0 7 72" fill="none" xmlns="http://www.w3.org/2000/svg">
<path d="M3.5 0.329671C2.02724 0.329671 0.833333 1.52358 0.833333 2.99634C0.833333 4.4691 2.02724 5.663 3.5 5.663C4.97276 5.663 6.16667 4.4691 6.16667 2.99634C6.16667 1.52358 4.97276 0.329671 3.5 0.329671ZM3 2.99634V3.99645H4V2.99634H3ZM3 5.99666V7.99688H4V5.99666H3ZM3 9.9971V11.9973H4V9.9971H3ZM3 13.9975V15.9977H4V13.9975H3ZM3 17.998V19.9982H4V17.998H3ZM3 21.9984V23.9986H4L4 21.9984H3ZM3 25.9988V27.999H4V25.9988H3ZM3 29.9993V31.9995H4V29.9993H3ZM3 33.9997V35.9999H4V33.9997H3ZM3 38.0001V40.0003H4V38.0001H3ZM3 42.0006V44.0008H4V42.0006H3ZM3 46.001V48.0012H4V46.001H3ZM3 50.0014V52.0016H4V50.0014H3ZM3 54.0019V56.0021H4L4 54.0019H3ZM3 58.0023V60.0025H4V58.0023H3ZM3 62.0027V64.0029H4V62.0027H3ZM3 66.0032V68.0034H4V66.0032H3ZM3 70.0036V71.0037H4V70.0036H3Z" fill="black"/>
</svg>
