<svg width="6" height="40" viewBox="0 0 6 40" fill="none" xmlns="http://www.w3.org/2000/svg">
<path d="M3 34.3333C1.52724 34.3333 0.333335 35.5272 0.333335 37C0.333335 38.4728 1.52724 39.6667 3 39.6667C4.47276 39.6667 5.66667 38.4728 5.66667 37C5.66667 35.5272 4.47276 34.3333 3 34.3333ZM2.5 2.18557e-08L2.5 1.02778L3.5 1.02778L3.5 -2.18557e-08L2.5 2.18557e-08ZM2.5 3.08333L2.5 5.13889L3.5 5.13889L3.5 3.08333L2.5 3.08333ZM2.5 7.19444L2.5 9.25L3.5 9.25L3.5 7.19444L2.5 7.19444ZM2.5 11.3056L2.5 13.3611L3.5 13.3611L3.5 11.3056L2.5 11.3056ZM2.5 15.4167L2.5 17.4722L3.5 17.4722L3.5 15.4167L2.5 15.4167ZM2.5 19.5278L2.5 21.5833L3.5 21.5833L3.5 19.5278L2.5 19.5278ZM2.5 23.6389L2.5 25.6944L3.5 25.6944L3.5 23.6389L2.5 23.6389ZM2.5 27.75L2.5 29.8056L3.5 29.8056L3.5 27.75L2.5 27.75ZM2.5 31.8611L2.5 33.9167L3.5 33.9167L3.5 31.8611L2.5 31.8611ZM2.5 35.9722L2.5 37L3.5 37L3.5 35.9722L2.5 35.9722Z" fill="black"/>
</svg>
