<svg width="7" height="71" viewBox="0 0 7 71" fill="none" xmlns="http://www.w3.org/2000/svg">
<path d="M3.5 0.326009C2.02724 0.326009 0.833333 1.51992 0.833333 2.99268C0.833333 4.46544 2.02724 5.65934 3.5 5.65934C4.97276 5.65934 6.16667 4.46544 6.16667 2.99268C6.16667 1.51992 4.97276 0.326009 3.5 0.326009ZM3 2.99268V3.99278H4V2.99268H3ZM3 5.993V7.99322H4V5.993H3ZM3 9.99343V11.9936H4V9.99343H3ZM3 13.9939V15.9941H4V13.9939H3ZM3 17.9943V19.9945H4V17.9943H3ZM3 21.9947V23.9949H4L4 21.9947H3ZM3 25.9952V27.9954H4V25.9952H3ZM3 29.9956V31.9958H4V29.9956H3ZM3 33.996V35.9962H4V33.996H3ZM3 37.9965V39.9967H4V37.9965H3ZM3 41.9969V43.9971H4V41.9969H3ZM3 45.9973V47.9975H4V45.9973H3ZM3 49.9978V51.998H4V49.9978H3ZM3 53.9982V55.9984H4L4 53.9982H3ZM3 57.9986V59.9988H4V57.9986H3ZM3 61.9991V63.9993H4V61.9991H3ZM3 65.9995V67.9997H4V65.9995H3ZM3 69.9999V71H4V69.9999H3Z" fill="black"/>
</svg>
