<svg width="6" height="72" viewBox="0 0 6 72" fill="none" xmlns="http://www.w3.org/2000/svg">
<path d="M3 0.333333C1.52724 0.333333 0.333333 1.52724 0.333333 3C0.333333 4.47276 1.52724 5.66667 3 5.66667C4.47276 5.66667 5.66667 4.47276 5.66667 3C5.66667 1.52724 4.47276 0.333333 3 0.333333ZM2.5 3V4.00011H3.5V3H2.5ZM2.5 6.00032V8.00054H3.5V6.00032H2.5ZM2.5 10.0008V12.001H3.5V10.0008H2.5ZM2.5 14.0012V16.0014H3.5V14.0012H2.5ZM2.5 18.0016V20.0018H3.5V18.0016H2.5ZM2.5 22.0021V24.0023H3.5L3.5 22.0021H2.5ZM2.5 26.0025V28.0027H3.5V26.0025H2.5ZM2.5 30.0029V32.0031H3.5V30.0029H2.5ZM2.5 34.0033V36.0036H3.5V34.0033H2.5ZM2.5 38.0038V40.004H3.5V38.0038H2.5ZM2.5 42.0042V44.0044H3.5V42.0042H2.5ZM2.5 46.0047V48.0049H3.5V46.0047H2.5ZM2.5 50.0051V52.0053H3.5V50.0051H2.5ZM2.5 54.0055V56.0057H3.5L3.5 54.0055H2.5ZM2.5 58.006V60.0062H3.5V58.006H2.5ZM2.5 62.0064V64.0066H3.5V62.0064H2.5ZM2.5 66.0068V68.007H3.5V66.0068H2.5ZM2.5 70.0073V71.0074H3.5V70.0073H2.5Z" fill="black"/>
</svg>
