<svg width="6" height="72" viewBox="0 0 6 72" fill="none" xmlns="http://www.w3.org/2000/svg">
<path d="M3 0.336995C1.52724 0.336995 0.333333 1.5309 0.333333 3.00366C0.333333 4.47642 1.52724 5.67033 3 5.67033C4.47276 5.67033 5.66667 4.47642 5.66667 3.00366C5.66667 1.5309 4.47276 0.336995 3 0.336995ZM2.5 3.00366V4.00377H3.5V3.00366H2.5ZM2.5 6.00399V8.0042H3.5V6.00399H2.5ZM2.5 10.0044V12.0046H3.5V10.0044H2.5ZM2.5 14.0049V16.0051H3.5V14.0049H2.5ZM2.5 18.0053V20.0055H3.5V18.0053H2.5ZM2.5 22.0057V24.0059H3.5L3.5 22.0057H2.5ZM2.5 26.0061V28.0064H3.5V26.0061H2.5ZM2.5 30.0066V32.0068H3.5V30.0066H2.5ZM2.5 34.007V36.0072H3.5V34.007H2.5ZM2.5 38.0074V40.0077H3.5V38.0074H2.5ZM2.5 42.0079V44.0081H3.5V42.0079H2.5ZM2.5 46.0083V48.0085H3.5V46.0083H2.5ZM2.5 50.0087V52.009H3.5V50.0087H2.5ZM2.5 54.0092V56.0094H3.5L3.5 54.0092H2.5ZM2.5 58.0096V60.0098H3.5V58.0096H2.5ZM2.5 62.0101V64.0103H3.5V62.0101H2.5ZM2.5 66.0105V68.0107H3.5V66.0105H2.5ZM2.5 70.0109V71.011H3.5V70.0109H2.5Z" fill="black"/>
</svg>
