<?xml version="1.0" encoding="utf-8"?>
<svg xmlns="http://www.w3.org/2000/svg" xmlns:xlink="http://www.w3.org/1999/xlink" style="background: rgb(255, 255, 255); display: block; position: relative; shape-rendering: auto;" width="573" height="573" preserveAspectRatio="xMidYMid" viewBox="0 0 573 573"><g transform="scale(2.24)">


<defs><g id="id-0.3444641575652765"><!--Generator: Adobe Illustrator 21.0.0, SVG Export Plug-In . SVG Version: 6.00 Build 0)--><style type="text/css">.st0{fill:#999998}.st1{fill:#323232}</style><polygon id="XMLID_3150_" class="st1" points="68.86,45.974 66.741,41.948 79.621,41.948 92.5,41.948 92.5,50 92.5,58.052 79.621,58.052 66.741,58.052 68.86,54.026 66.741,50 " data-fill="c1" style="fill: rgb(39, 39, 39);"></polygon><path id="XMLID_3149_" class="st1" d="M37.179,19.425L23.726,32.882L8.128,48.484c-0.837,0.837-0.837,2.195,0,3.032l15.598,15.602 l13.453,13.456c1.351,1.351,3.661,0.394,3.661-1.516v-7.914V58.052h9.657h9.657l2.119-4.026L60.154,50l2.119-4.026l-2.119-4.026 h-9.657H40.84V28.856v-7.914C40.84,19.031,38.53,18.074,37.179,19.425z" data-fill="c1" style="fill: rgb(39, 39, 39);"></path><path id="XMLID_3148_" class="st0" d="M53.253,66.284l-1.655,2.867c-0.445,0.77-0.181,1.755,0.589,2.2 c0.77,0.445,1.755,0.181,2.2-0.59l1.655-2.867c0.444-0.77,0.181-1.755-0.589-2.2C54.682,65.25,53.698,65.513,53.253,66.284z" data-fill="c2" style="fill: rgb(39, 39, 39);"></path><path id="XMLID_3147_" class="st0" d="M62.103,73l0.575-3.261c0.154-0.876-0.43-1.711-1.306-1.865h-0.001 c-0.876-0.155-1.711,0.43-1.866,1.306l-0.575,3.261c-0.154,0.876,0.43,1.711,1.306,1.865h0.001 C61.114,74.461,61.949,73.876,62.103,73z" data-fill="c2" style="fill: rgb(39, 39, 39);"></path><path id="XMLID_3146_" class="st0" d="M67.68,67.898h-0.001c-0.876,0.155-1.46,0.99-1.306,1.865l0.575,3.261 c0.155,0.876,0.99,1.46,1.866,1.306h0.001c0.876-0.155,1.46-0.99,1.306-1.865l-0.575-3.261 C69.391,68.328,68.556,67.743,67.68,67.898z" data-fill="c2" style="fill: rgb(39, 39, 39);"></path><path id="XMLID_3145_" class="st0" d="M73.025,67.963l1.656,2.867c0.445,0.77,1.43,1.034,2.2,0.589c0.77-0.445,1.034-1.43,0.589-2.2 l-1.656-2.867c-0.445-0.77-1.429-1.034-2.2-0.589C72.844,66.208,72.581,67.193,73.025,67.963z" data-fill="c2" style="fill: rgb(39, 39, 39);"></path><path id="XMLID_3144_" class="st0" d="M74.801,29.24l-1.655,2.866c-0.445,0.77-0.181,1.755,0.589,2.2 c0.77,0.445,1.755,0.181,2.2-0.589l1.655-2.866c0.445-0.77,0.181-1.755-0.589-2.2C76.231,28.206,75.246,28.47,74.801,29.24z" data-fill="c2" style="fill: rgb(39, 39, 39);"></path><path id="XMLID_3143_" class="st0" d="M67.084,27l-0.575,3.261c-0.154,0.875,0.43,1.711,1.306,1.865l0.001,0 c0.876,0.155,1.711-0.43,1.866-1.306l0.575-3.261c0.154-0.875-0.43-1.711-1.306-1.865l-0.001,0 C68.074,25.539,67.239,26.124,67.084,27z" data-fill="c2" style="fill: rgb(39, 39, 39);"></path><path id="XMLID_3142_" class="st0" d="M60.374,25.67c-0.876,0.154-1.46,0.989-1.306,1.865l0.575,3.261 c0.154,0.876,0.99,1.461,1.866,1.306l0.001,0c0.876-0.154,1.46-0.989,1.306-1.865l-0.575-3.261c-0.154-0.876-0.99-1.461-1.866-1.306 L60.374,25.67z" data-fill="c2" style="fill: rgb(39, 39, 39);"></path><path id="XMLID_3141_" class="st0" d="M56.163,32.037l-1.655-2.867c-0.445-0.77-1.43-1.034-2.2-0.59 c-0.77,0.445-1.034,1.43-0.589,2.2l1.655,2.867c0.445,0.77,1.43,1.034,2.2,0.59C56.343,33.792,56.607,32.807,56.163,32.037z" data-fill="c2" style="fill: rgb(39, 39, 39);"></path><metadata xmlns:d="https://loading.io/stock/"><d:name>left</d:name><d:tags>west,back,undo,previous,direction,way,turn,break,fix,broken,left,arrow</d:tags><d:license>by</d:license><d:slug>q4h3fy</d:slug></metadata></g></defs>

<!-- Generator: Adobe Illustrator 21.0.0, SVG Export Plug-In . SVG Version: 6.00 Build 0)  -->


















<g data-idx="0" data-dup="" dx="-128" dy="-128" style="transform-origin: -43.697px -33.235px; animation: 9.09091s linear 0s infinite normal forwards running clock-8d141a2d-bc45-46c3-a25e-72bf4821516b;"><g transform="translate(-128,-128)"><polygon fill="#B3B4B4" points="95.261,98.953 73.345,96.2 74.22,90.577 94.461,93.724 " data-fill="c3" style="fill: rgb(255, 255, 255);"></polygon></g></g><g data-idx="0" data-dup="" dx="128" dy="-128" style="transform-origin: 212.303px -33.235px; animation: 9.09091s linear 0s infinite normal forwards running clock-8d141a2d-bc45-46c3-a25e-72bf4821516b;"><g transform="translate(128,-128)"><polygon fill="#B3B4B4" points="95.261,98.953 73.345,96.2 74.22,90.577 94.461,93.724 " data-fill="c3" style="fill: rgb(255, 255, 255);"></polygon></g></g><g data-idx="1" data-dup="" dx="-128" dy="-128" style="transform-origin: -89.899px 85.4716px; animation: 9.09091s linear 0s infinite normal forwards running clock-8d141a2d-bc45-46c3-a25e-72bf4821516b;"><g transform="translate(-128,-128)"><path fill="#B3B4B4" d="M38.105,224.49c-0.05,0-0.099,0-0.149-0.001c-2.943-0.039-5.694-1.221-7.748-3.33
	c-4.239-4.352-4.147-11.342,0.205-15.581c2.108-2.054,4.884-3.157,7.833-3.124c2.943,0.039,5.694,1.222,7.748,3.33
	c4.239,4.352,4.147,11.342-0.205,15.58C43.716,223.383,40.992,224.49,38.105,224.49z M38.098,207.494
	c-1.567,0-3.044,0.6-4.169,1.695c-2.361,2.3-2.411,6.092-0.111,8.453c1.114,1.144,2.607,1.785,4.204,1.806
	c1.609,0.014,3.106-0.581,4.25-1.695c2.361-2.3,2.411-6.092,0.112-8.453l0,0c-1.114-1.144-2.607-1.785-4.204-1.806
	C38.152,207.494,38.125,207.494,38.098,207.494z" data-fill="c3" style="fill: rgb(255, 255, 255);"></path></g></g><g data-idx="1" data-dup="" dx="128" dy="-128" style="transform-origin: 166.101px 85.4716px; animation: 9.09091s linear 0s infinite normal forwards running clock-8d141a2d-bc45-46c3-a25e-72bf4821516b;"><g transform="translate(128,-128)"><path fill="#B3B4B4" d="M38.105,224.49c-0.05,0-0.099,0-0.149-0.001c-2.943-0.039-5.694-1.221-7.748-3.33
	c-4.239-4.352-4.147-11.342,0.205-15.581c2.108-2.054,4.884-3.157,7.833-3.124c2.943,0.039,5.694,1.222,7.748,3.33
	c4.239,4.352,4.147,11.342-0.205,15.58C43.716,223.383,40.992,224.49,38.105,224.49z M38.098,207.494
	c-1.567,0-3.044,0.6-4.169,1.695c-2.361,2.3-2.411,6.092-0.111,8.453c1.114,1.144,2.607,1.785,4.204,1.806
	c1.609,0.014,3.106-0.581,4.25-1.695c2.361-2.3,2.411-6.092,0.112-8.453l0,0c-1.114-1.144-2.607-1.785-4.204-1.806
	C38.152,207.494,38.125,207.494,38.098,207.494z" data-fill="c3" style="fill: rgb(255, 255, 255);"></path></g></g><g data-idx="2" data-dup="" dx="-128" dy="-128" style="transform-origin: 106.49px -80.4995px; animation: 9.09091s linear 0s infinite normal forwards running clock-8d141a2d-bc45-46c3-a25e-72bf4821516b;"><g transform="translate(-128,-128)"><ellipse transform="matrix(0.7249 -0.6888 0.6888 0.7249 31.7828 174.5914)" fill="#B3B4B4" cx="234.5" cy="47.5" rx="4.4" ry="4.4" data-fill="c3" style="fill: rgb(255, 255, 255);"></ellipse></g></g><g data-idx="2" data-dup="" dx="128" dy="-128" style="transform-origin: 362.49px -80.4995px; animation: 9.09091s linear 0s infinite normal forwards running clock-8d141a2d-bc45-46c3-a25e-72bf4821516b;"><g transform="translate(128,-128)"><ellipse transform="matrix(0.7249 -0.6888 0.6888 0.7249 31.7828 174.5914)" fill="#B3B4B4" cx="234.5" cy="47.5" rx="4.4" ry="4.4" data-fill="c3" style="fill: rgb(255, 255, 255);"></ellipse></g></g><g data-idx="3" data-dup="t" dx="-128" dy="-128" style="transform-origin: 28.5333px 18.653px; animation: 9.09091s linear 0s infinite normal forwards running clock-8d141a2d-bc45-46c3-a25e-72bf4821516b;"><g transform="translate(-128,-128)"><path fill="#B3B4B4" d="M156.299,159.176l-1.714-5.053c3.929-1.333,6.042-5.614,4.709-9.543c-0.645-1.903-1.994-3.442-3.796-4.331
	c-1.803-0.89-3.844-1.024-5.747-0.378l-1.714-5.053c3.254-1.103,6.741-0.874,9.822,0.646c3.08,1.52,5.385,4.149,6.488,7.402
	C166.625,149.582,163.015,156.898,156.299,159.176z" data-fill="c3" style="fill: rgb(255, 255, 255);"></path></g></g><g data-idx="3" data-dup="t" dx="128" dy="-128" style="transform-origin: 284.533px 18.653px; animation: 9.09091s linear 0s infinite normal forwards running clock-8d141a2d-bc45-46c3-a25e-72bf4821516b;"><g transform="translate(128,-128)"><path fill="#B3B4B4" d="M156.299,159.176l-1.714-5.053c3.929-1.333,6.042-5.614,4.709-9.543c-0.645-1.903-1.994-3.442-3.796-4.331
	c-1.803-0.89-3.844-1.024-5.747-0.378l-1.714-5.053c3.254-1.103,6.741-0.874,9.822,0.646c3.08,1.52,5.385,4.149,6.488,7.402
	C166.625,149.582,163.015,156.898,156.299,159.176z" data-fill="c3" style="fill: rgb(255, 255, 255);"></path></g></g><g data-idx="4" data-dup="t" dx="-128" dy="-128" style="transform-origin: -25.5058px 21.4949px; animation: 9.09091s linear 0s infinite normal forwards running clock-8d141a2d-bc45-46c3-a25e-72bf4821516b;"><g transform="translate(-128,-128)"><ellipse transform="matrix(0.7249 -0.6888 0.6888 0.7249 -74.7837 111.7244)" fill="#B3B4B4" cx="102.5" cy="149.5" rx="4.4" ry="4.4" data-fill="c3" style="fill: rgb(255, 255, 255);"></ellipse></g></g><g data-idx="4" data-dup="t" dx="128" dy="-128" style="transform-origin: 230.494px 21.4949px; animation: 9.09091s linear 0s infinite normal forwards running clock-8d141a2d-bc45-46c3-a25e-72bf4821516b;"><g transform="translate(128,-128)"><ellipse transform="matrix(0.7249 -0.6888 0.6888 0.7249 -74.7837 111.7244)" fill="#B3B4B4" cx="102.5" cy="149.5" rx="4.4" ry="4.4" data-fill="c3" style="fill: rgb(255, 255, 255);"></ellipse></g></g><g data-idx="5" data-dup="" dx="-128" dy="-128" style="transform-origin: 114.171px 116.691px; animation: 9.09091s linear 0s infinite normal forwards running clock-8d141a2d-bc45-46c3-a25e-72bf4821516b;"><g transform="translate(-128,-128)"><polygon fill="#B3B4B4" points="231.486,249.178 247.065,235.877 252.857,238.786 235.18,253.505 " data-fill="c3" style="fill: rgb(255, 255, 255);"></polygon></g></g><g data-idx="5" data-dup="" dx="128" dy="-128" style="transform-origin: 370.171px 116.691px; animation: 9.09091s linear 0s infinite normal forwards running clock-8d141a2d-bc45-46c3-a25e-72bf4821516b;"><g transform="translate(128,-128)"><polygon fill="#B3B4B4" points="231.486,249.178 247.065,235.877 252.857,238.786 235.18,253.505 " data-fill="c3" style="fill: rgb(255, 255, 255);"></polygon></g></g><g data-idx="6" data-dup="" dx="-128" dy="-128" style="transform-origin: -20.197px -96.9315px; animation: 9.09091s linear 0s infinite normal forwards running clock-8d141a2d-bc45-46c3-a25e-72bf4821516b;"><g transform="translate(-128,-128)"><polygon fill="#B3B4B4" points="115.367,21.954 103.961,43.014 100.239,36.891 110.431,19.123 " data-fill="c3" style="fill: rgb(255, 255, 255);"></polygon></g></g><g data-idx="6" data-dup="" dx="128" dy="-128" style="transform-origin: 235.803px -96.9315px; animation: 9.09091s linear 0s infinite normal forwards running clock-8d141a2d-bc45-46c3-a25e-72bf4821516b;"><g transform="translate(128,-128)"><polygon fill="#B3B4B4" points="115.367,21.954 103.961,43.014 100.239,36.891 110.431,19.123 " data-fill="c3" style="fill: rgb(255, 255, 255);"></polygon></g></g><g data-idx="7" data-dup="" dx="-128" dy="-128" style="transform-origin: 94.1px -7.15031px; animation: 9.09091s linear 0s infinite normal forwards running clock-8d141a2d-bc45-46c3-a25e-72bf4821516b;"><g transform="translate(-128,-128)"><path fill="#B3B4B4" d="M222.104,130.57c-0.044,0-0.088,0-0.132-0.001c-2.596-0.034-5.024-1.077-6.835-2.937
	c-3.74-3.84-3.659-10.006,0.181-13.746c1.86-1.812,4.308-2.785,6.91-2.756c2.596,0.034,5.024,1.078,6.835,2.938
	c3.74,3.839,3.659,10.006-0.181,13.745C227.054,129.594,224.651,130.57,222.104,130.57z M222.099,115.576
	c-1.382,0-2.686,0.53-3.678,1.496c-2.083,2.029-2.127,5.374-0.098,7.458c0.983,1.009,2.3,1.575,3.708,1.594
	c1.42,0.013,2.74-0.512,3.749-1.495c2.083-2.029,2.127-5.374,0.098-7.457l0,0c-0.983-1.009-2.3-1.575-3.708-1.594
	C222.146,115.576,222.122,115.576,222.099,115.576z" data-fill="c3" style="fill: rgb(255, 255, 255);"></path></g></g><g data-idx="7" data-dup="" dx="128" dy="-128" style="transform-origin: 350.1px -7.15031px; animation: 9.09091s linear 0s infinite normal forwards running clock-8d141a2d-bc45-46c3-a25e-72bf4821516b;"><g transform="translate(128,-128)"><path fill="#B3B4B4" d="M222.104,130.57c-0.044,0-0.088,0-0.132-0.001c-2.596-0.034-5.024-1.077-6.835-2.937
	c-3.74-3.84-3.659-10.006,0.181-13.746c1.86-1.812,4.308-2.785,6.91-2.756c2.596,0.034,5.024,1.078,6.835,2.938
	c3.74,3.839,3.659,10.006-0.181,13.745C227.054,129.594,224.651,130.57,222.104,130.57z M222.099,115.576
	c-1.382,0-2.686,0.53-3.678,1.496c-2.083,2.029-2.127,5.374-0.098,7.458c0.983,1.009,2.3,1.575,3.708,1.594
	c1.42,0.013,2.74-0.512,3.749-1.495c2.083-2.029,2.127-5.374,0.098-7.457l0,0c-0.983-1.009-2.3-1.575-3.708-1.594
	C222.146,115.576,222.122,115.576,222.099,115.576z" data-fill="c3" style="fill: rgb(255, 255, 255);"></path></g></g><g data-idx="8" data-dup="" dx="-128" dy="-128" style="transform-origin: 46.6647px -119.158px; animation: 9.09091s linear 0s infinite normal forwards running clock-8d141a2d-bc45-46c3-a25e-72bf4821516b;"><g transform="translate(-128,-128)"><path fill="#B3B4B4" d="M184.509,10.022l-4.015,1.058c-0.822-3.122-4.032-4.993-7.154-4.17c-1.512,0.398-2.779,1.362-3.567,2.713
	c-0.788,1.352-1.003,2.929-0.603,4.44l-4.015,1.058c-0.681-2.585-0.315-5.28,1.031-7.589c1.346-2.309,3.511-3.956,6.096-4.637
	C177.619,1.489,183.103,4.687,184.509,10.022z" data-fill="c3" style="fill: rgb(255, 255, 255);"></path></g></g><g data-idx="8" data-dup="" dx="128" dy="-128" style="transform-origin: 302.665px -119.158px; animation: 9.09091s linear 0s infinite normal forwards running clock-8d141a2d-bc45-46c3-a25e-72bf4821516b;"><g transform="translate(128,-128)"><path fill="#B3B4B4" d="M184.509,10.022l-4.015,1.058c-0.822-3.122-4.032-4.993-7.154-4.17c-1.512,0.398-2.779,1.362-3.567,2.713
	c-0.788,1.352-1.003,2.929-0.603,4.44l-4.015,1.058c-0.681-2.585-0.315-5.28,1.031-7.589c1.346-2.309,3.511-3.956,6.096-4.637
	C177.619,1.489,183.103,4.687,184.509,10.022z" data-fill="c3" style="fill: rgb(255, 255, 255);"></path></g></g><g data-idx="9" data-dup="" dx="-128" dy="-128" style="transform-origin: -6.92399px 94.3989px; animation: 9.09091s linear 0s infinite normal forwards running clock-8d141a2d-bc45-46c3-a25e-72bf4821516b;"><g transform="translate(-128,-128)"><g transform="matrix(0.9912 0.1325 -0.1325 0.9912 30.542 -14.083) translate(121.067,222.398) scale(0.6786666666666666)"><g data-icon="" transform="scale(1.11)">  <use xlink:href="#id-0.3444641575652765" x="-50" y="-50"></use>
</g></g></g></g><g data-idx="9" data-dup="" dx="128" dy="-128" style="transform-origin: 249.076px 94.3989px; animation: 9.09091s linear 0s infinite normal forwards running clock-8d141a2d-bc45-46c3-a25e-72bf4821516b;"><g transform="translate(128,-128)"><g transform="matrix(0.9912 0.1325 -0.1325 0.9912 30.542 -14.083) translate(121.067,222.398) scale(0.6786666666666666)"><g data-icon="" transform="scale(1.11)">  <use xlink:href="#id-0.3444641575652765" x="-50" y="-50"></use>
</g></g></g></g><g data-idx="10" data-dup="" dx="-128" dy="-128" style="transform-origin: 33.2571px -52.8257px; animation: 9.09091s linear 0s infinite normal forwards running clock-8d141a2d-bc45-46c3-a25e-72bf4821516b;"><g transform="translate(-128,-128)"><g transform="matrix(-0.0456 0.999 -0.999 -0.0456 243.7065 -82.5047) translate(161.268,75.17099999999999) scale(0.47706666666666664)"><g data-icon="" transform="scale(1.11)">  <use xlink:href="#id-0.3444641575652765" x="-50" y="-50"></use>
</g></g></g></g><g data-idx="10" data-dup="" dx="128" dy="-128" style="transform-origin: 289.257px -52.8257px; animation: 9.09091s linear 0s infinite normal forwards running clock-8d141a2d-bc45-46c3-a25e-72bf4821516b;"><g transform="translate(128,-128)"><g transform="matrix(-0.0456 0.999 -0.999 -0.0456 243.7065 -82.5047) translate(161.268,75.17099999999999) scale(0.47706666666666664)"><g data-icon="" transform="scale(1.11)">  <use xlink:href="#id-0.3444641575652765" x="-50" y="-50"></use>
</g></g></g></g><g data-idx="11" data-dup="" dx="-128" dy="-128" style="transform-origin: 87.308px 65.0822px; animation: 9.09091s linear 0s infinite normal forwards running clock-8d141a2d-bc45-46c3-a25e-72bf4821516b;"><g transform="translate(-128,-128)"><g transform="matrix(0.5905 -0.8071 0.8071 0.5905 -67.6584 252.8308) translate(215.293,193.0815) scale(0.5214666666666667)"><g data-icon="" transform="scale(1.11)">  <use xlink:href="#id-0.3444641575652765" x="-50" y="-50"></use>
</g></g></g></g><g data-idx="11" data-dup="" dx="128" dy="-128" style="transform-origin: 343.308px 65.0822px; animation: 9.09091s linear 0s infinite normal forwards running clock-8d141a2d-bc45-46c3-a25e-72bf4821516b;"><g transform="translate(128,-128)"><g transform="matrix(0.5905 -0.8071 0.8071 0.5905 -67.6584 252.8308) translate(215.293,193.0815) scale(0.5214666666666667)"><g data-icon="" transform="scale(1.11)">  <use xlink:href="#id-0.3444641575652765" x="-50" y="-50"></use>
</g></g></g></g><g data-idx="12" data-dup="" dx="-128" dy="-128" style="transform-origin: -78.8153px -89.6955px; animation: 9.09091s linear 0s infinite normal forwards running clock-8d141a2d-bc45-46c3-a25e-72bf4821516b;"><g transform="translate(-128,-128)"><g transform="matrix(-0.4749 -0.8801 0.8801 -0.4749 38.8277 99.7848) translate(49.185,38.308499999999995) scale(0.5980444444444444)"><g data-icon="" transform="scale(1.11)">  <use xlink:href="#id-0.3444641575652765" x="-50" y="-50"></use>
</g></g></g></g><g data-idx="12" data-dup="" dx="128" dy="-128" style="transform-origin: 177.185px -89.6955px; animation: 9.09091s linear 0s infinite normal forwards running clock-8d141a2d-bc45-46c3-a25e-72bf4821516b;"><g transform="translate(128,-128)"><g transform="matrix(-0.4749 -0.8801 0.8801 -0.4749 38.8277 99.7848) translate(49.185,38.308499999999995) scale(0.5980444444444444)"><g data-icon="" transform="scale(1.11)">  <use xlink:href="#id-0.3444641575652765" x="-50" y="-50"></use>
</g></g></g></g><g data-idx="13" data-dup="t" dx="-128" dy="-128" style="transform-origin: -89.5676px 14.2463px; animation: 9.09091s linear 0s infinite normal forwards running clock-8d141a2d-bc45-46c3-a25e-72bf4821516b;"><g transform="translate(-128,-128)"><g transform="matrix(0.7381 -0.6747 0.6747 0.7381 -85.9069 63.1885) translate(38.434,142.243) scale(0.607688888888889)"><g data-icon="" transform="scale(1.11)">  <use xlink:href="#id-0.3444641575652765" x="-50" y="-50"></use>
</g></g></g></g><g data-idx="13" data-dup="t" dx="128" dy="-128" style="transform-origin: 166.432px 14.2463px; animation: 9.09091s linear 0s infinite normal forwards running clock-8d141a2d-bc45-46c3-a25e-72bf4821516b;"><g transform="translate(128,-128)"><g transform="matrix(0.7381 -0.6747 0.6747 0.7381 -85.9069 63.1885) translate(38.434,142.243) scale(0.607688888888889)"><g data-icon="" transform="scale(1.11)">  <use xlink:href="#id-0.3444641575652765" x="-50" y="-50"></use>
</g></g></g></g><g data-idx="0" data-dup="" dx="-128" dy="128" style="transform-origin: -43.697px 222.765px; animation: 9.09091s linear 0s infinite normal forwards running clock-8d141a2d-bc45-46c3-a25e-72bf4821516b;"><g transform="translate(-128,128)"><polygon fill="#B3B4B4" points="95.261,98.953 73.345,96.2 74.22,90.577 94.461,93.724 " data-fill="c3" style="fill: rgb(255, 255, 255);"></polygon></g></g><g data-idx="0" data-dup="" dx="128" dy="128" style="transform-origin: 212.303px 222.765px; animation: 9.09091s linear 0s infinite normal forwards running clock-8d141a2d-bc45-46c3-a25e-72bf4821516b;"><g transform="translate(128,128)"><polygon fill="#B3B4B4" points="95.261,98.953 73.345,96.2 74.22,90.577 94.461,93.724 " data-fill="c3" style="fill: rgb(255, 255, 255);"></polygon></g></g><g data-idx="1" data-dup="" dx="-128" dy="128" style="transform-origin: -89.899px 341.472px; animation: 9.09091s linear 0s infinite normal forwards running clock-8d141a2d-bc45-46c3-a25e-72bf4821516b;"><g transform="translate(-128,128)"><path fill="#B3B4B4" d="M38.105,224.49c-0.05,0-0.099,0-0.149-0.001c-2.943-0.039-5.694-1.221-7.748-3.33
	c-4.239-4.352-4.147-11.342,0.205-15.581c2.108-2.054,4.884-3.157,7.833-3.124c2.943,0.039,5.694,1.222,7.748,3.33
	c4.239,4.352,4.147,11.342-0.205,15.58C43.716,223.383,40.992,224.49,38.105,224.49z M38.098,207.494
	c-1.567,0-3.044,0.6-4.169,1.695c-2.361,2.3-2.411,6.092-0.111,8.453c1.114,1.144,2.607,1.785,4.204,1.806
	c1.609,0.014,3.106-0.581,4.25-1.695c2.361-2.3,2.411-6.092,0.112-8.453l0,0c-1.114-1.144-2.607-1.785-4.204-1.806
	C38.152,207.494,38.125,207.494,38.098,207.494z" data-fill="c3" style="fill: rgb(255, 255, 255);"></path></g></g><g data-idx="1" data-dup="" dx="128" dy="128" style="transform-origin: 166.101px 341.472px; animation: 9.09091s linear 0s infinite normal forwards running clock-8d141a2d-bc45-46c3-a25e-72bf4821516b;"><g transform="translate(128,128)"><path fill="#B3B4B4" d="M38.105,224.49c-0.05,0-0.099,0-0.149-0.001c-2.943-0.039-5.694-1.221-7.748-3.33
	c-4.239-4.352-4.147-11.342,0.205-15.581c2.108-2.054,4.884-3.157,7.833-3.124c2.943,0.039,5.694,1.222,7.748,3.33
	c4.239,4.352,4.147,11.342-0.205,15.58C43.716,223.383,40.992,224.49,38.105,224.49z M38.098,207.494
	c-1.567,0-3.044,0.6-4.169,1.695c-2.361,2.3-2.411,6.092-0.111,8.453c1.114,1.144,2.607,1.785,4.204,1.806
	c1.609,0.014,3.106-0.581,4.25-1.695c2.361-2.3,2.411-6.092,0.112-8.453l0,0c-1.114-1.144-2.607-1.785-4.204-1.806
	C38.152,207.494,38.125,207.494,38.098,207.494z" data-fill="c3" style="fill: rgb(255, 255, 255);"></path></g></g><g data-idx="2" data-dup="" dx="-128" dy="128" style="transform-origin: 106.49px 175.501px; animation: 9.09091s linear 0s infinite normal forwards running clock-8d141a2d-bc45-46c3-a25e-72bf4821516b;"><g transform="translate(-128,128)"><ellipse transform="matrix(0.7249 -0.6888 0.6888 0.7249 31.7828 174.5914)" fill="#B3B4B4" cx="234.5" cy="47.5" rx="4.4" ry="4.4" data-fill="c3" style="fill: rgb(255, 255, 255);"></ellipse></g></g><g data-idx="2" data-dup="" dx="128" dy="128" style="transform-origin: 362.49px 175.501px; animation: 9.09091s linear 0s infinite normal forwards running clock-8d141a2d-bc45-46c3-a25e-72bf4821516b;"><g transform="translate(128,128)"><ellipse transform="matrix(0.7249 -0.6888 0.6888 0.7249 31.7828 174.5914)" fill="#B3B4B4" cx="234.5" cy="47.5" rx="4.4" ry="4.4" data-fill="c3" style="fill: rgb(255, 255, 255);"></ellipse></g></g><g data-idx="3" data-dup="t" dx="-128" dy="128" style="transform-origin: 28.5333px 274.653px; animation: 9.09091s linear 0s infinite normal forwards running clock-8d141a2d-bc45-46c3-a25e-72bf4821516b;"><g transform="translate(-128,128)"><path fill="#B3B4B4" d="M156.299,159.176l-1.714-5.053c3.929-1.333,6.042-5.614,4.709-9.543c-0.645-1.903-1.994-3.442-3.796-4.331
	c-1.803-0.89-3.844-1.024-5.747-0.378l-1.714-5.053c3.254-1.103,6.741-0.874,9.822,0.646c3.08,1.52,5.385,4.149,6.488,7.402
	C166.625,149.582,163.015,156.898,156.299,159.176z" data-fill="c3" style="fill: rgb(255, 255, 255);"></path></g></g><g data-idx="3" data-dup="t" dx="128" dy="128" style="transform-origin: 284.533px 274.653px; animation: 9.09091s linear 0s infinite normal forwards running clock-8d141a2d-bc45-46c3-a25e-72bf4821516b;"><g transform="translate(128,128)"><path fill="#B3B4B4" d="M156.299,159.176l-1.714-5.053c3.929-1.333,6.042-5.614,4.709-9.543c-0.645-1.903-1.994-3.442-3.796-4.331
	c-1.803-0.89-3.844-1.024-5.747-0.378l-1.714-5.053c3.254-1.103,6.741-0.874,9.822,0.646c3.08,1.52,5.385,4.149,6.488,7.402
	C166.625,149.582,163.015,156.898,156.299,159.176z" data-fill="c3" style="fill: rgb(255, 255, 255);"></path></g></g><g data-idx="4" data-dup="t" dx="-128" dy="128" style="transform-origin: -25.5058px 277.495px; animation: 9.09091s linear 0s infinite normal forwards running clock-8d141a2d-bc45-46c3-a25e-72bf4821516b;"><g transform="translate(-128,128)"><ellipse transform="matrix(0.7249 -0.6888 0.6888 0.7249 -74.7837 111.7244)" fill="#B3B4B4" cx="102.5" cy="149.5" rx="4.4" ry="4.4" data-fill="c3" style="fill: rgb(255, 255, 255);"></ellipse></g></g><g data-idx="4" data-dup="t" dx="128" dy="128" style="transform-origin: 230.494px 277.495px; animation: 9.09091s linear 0s infinite normal forwards running clock-8d141a2d-bc45-46c3-a25e-72bf4821516b;"><g transform="translate(128,128)"><ellipse transform="matrix(0.7249 -0.6888 0.6888 0.7249 -74.7837 111.7244)" fill="#B3B4B4" cx="102.5" cy="149.5" rx="4.4" ry="4.4" data-fill="c3" style="fill: rgb(255, 255, 255);"></ellipse></g></g><g data-idx="5" data-dup="" dx="-128" dy="128" style="transform-origin: 114.171px 372.691px; animation: 9.09091s linear 0s infinite normal forwards running clock-8d141a2d-bc45-46c3-a25e-72bf4821516b;"><g transform="translate(-128,128)"><polygon fill="#B3B4B4" points="231.486,249.178 247.065,235.877 252.857,238.786 235.18,253.505 " data-fill="c3" style="fill: rgb(255, 255, 255);"></polygon></g></g><g data-idx="5" data-dup="" dx="128" dy="128" style="transform-origin: 370.171px 372.691px; animation: 9.09091s linear 0s infinite normal forwards running clock-8d141a2d-bc45-46c3-a25e-72bf4821516b;"><g transform="translate(128,128)"><polygon fill="#B3B4B4" points="231.486,249.178 247.065,235.877 252.857,238.786 235.18,253.505 " data-fill="c3" style="fill: rgb(255, 255, 255);"></polygon></g></g><g data-idx="6" data-dup="" dx="-128" dy="128" style="transform-origin: -20.197px 159.069px; animation: 9.09091s linear 0s infinite normal forwards running clock-8d141a2d-bc45-46c3-a25e-72bf4821516b;"><g transform="translate(-128,128)"><polygon fill="#B3B4B4" points="115.367,21.954 103.961,43.014 100.239,36.891 110.431,19.123 " data-fill="c3" style="fill: rgb(255, 255, 255);"></polygon></g></g><g data-idx="6" data-dup="" dx="128" dy="128" style="transform-origin: 235.803px 159.069px; animation: 9.09091s linear 0s infinite normal forwards running clock-8d141a2d-bc45-46c3-a25e-72bf4821516b;"><g transform="translate(128,128)"><polygon fill="#B3B4B4" points="115.367,21.954 103.961,43.014 100.239,36.891 110.431,19.123 " data-fill="c3" style="fill: rgb(255, 255, 255);"></polygon></g></g><g data-idx="7" data-dup="" dx="-128" dy="128" style="transform-origin: 94.1px 248.85px; animation: 9.09091s linear 0s infinite normal forwards running clock-8d141a2d-bc45-46c3-a25e-72bf4821516b;"><g transform="translate(-128,128)"><path fill="#B3B4B4" d="M222.104,130.57c-0.044,0-0.088,0-0.132-0.001c-2.596-0.034-5.024-1.077-6.835-2.937
	c-3.74-3.84-3.659-10.006,0.181-13.746c1.86-1.812,4.308-2.785,6.91-2.756c2.596,0.034,5.024,1.078,6.835,2.938
	c3.74,3.839,3.659,10.006-0.181,13.745C227.054,129.594,224.651,130.57,222.104,130.57z M222.099,115.576
	c-1.382,0-2.686,0.53-3.678,1.496c-2.083,2.029-2.127,5.374-0.098,7.458c0.983,1.009,2.3,1.575,3.708,1.594
	c1.42,0.013,2.74-0.512,3.749-1.495c2.083-2.029,2.127-5.374,0.098-7.457l0,0c-0.983-1.009-2.3-1.575-3.708-1.594
	C222.146,115.576,222.122,115.576,222.099,115.576z" data-fill="c3" style="fill: rgb(255, 255, 255);"></path></g></g><g data-idx="7" data-dup="" dx="128" dy="128" style="transform-origin: 350.1px 248.85px; animation: 9.09091s linear 0s infinite normal forwards running clock-8d141a2d-bc45-46c3-a25e-72bf4821516b;"><g transform="translate(128,128)"><path fill="#B3B4B4" d="M222.104,130.57c-0.044,0-0.088,0-0.132-0.001c-2.596-0.034-5.024-1.077-6.835-2.937
	c-3.74-3.84-3.659-10.006,0.181-13.746c1.86-1.812,4.308-2.785,6.91-2.756c2.596,0.034,5.024,1.078,6.835,2.938
	c3.74,3.839,3.659,10.006-0.181,13.745C227.054,129.594,224.651,130.57,222.104,130.57z M222.099,115.576
	c-1.382,0-2.686,0.53-3.678,1.496c-2.083,2.029-2.127,5.374-0.098,7.458c0.983,1.009,2.3,1.575,3.708,1.594
	c1.42,0.013,2.74-0.512,3.749-1.495c2.083-2.029,2.127-5.374,0.098-7.457l0,0c-0.983-1.009-2.3-1.575-3.708-1.594
	C222.146,115.576,222.122,115.576,222.099,115.576z" data-fill="c3" style="fill: rgb(255, 255, 255);"></path></g></g><g data-idx="8" data-dup="" dx="-128" dy="128" style="transform-origin: 46.6647px 136.842px; animation: 9.09091s linear 0s infinite normal forwards running clock-8d141a2d-bc45-46c3-a25e-72bf4821516b;"><g transform="translate(-128,128)"><path fill="#B3B4B4" d="M184.509,10.022l-4.015,1.058c-0.822-3.122-4.032-4.993-7.154-4.17c-1.512,0.398-2.779,1.362-3.567,2.713
	c-0.788,1.352-1.003,2.929-0.603,4.44l-4.015,1.058c-0.681-2.585-0.315-5.28,1.031-7.589c1.346-2.309,3.511-3.956,6.096-4.637
	C177.619,1.489,183.103,4.687,184.509,10.022z" data-fill="c3" style="fill: rgb(255, 255, 255);"></path></g></g><g data-idx="8" data-dup="" dx="128" dy="128" style="transform-origin: 302.665px 136.842px; animation: 9.09091s linear 0s infinite normal forwards running clock-8d141a2d-bc45-46c3-a25e-72bf4821516b;"><g transform="translate(128,128)"><path fill="#B3B4B4" d="M184.509,10.022l-4.015,1.058c-0.822-3.122-4.032-4.993-7.154-4.17c-1.512,0.398-2.779,1.362-3.567,2.713
	c-0.788,1.352-1.003,2.929-0.603,4.44l-4.015,1.058c-0.681-2.585-0.315-5.28,1.031-7.589c1.346-2.309,3.511-3.956,6.096-4.637
	C177.619,1.489,183.103,4.687,184.509,10.022z" data-fill="c3" style="fill: rgb(255, 255, 255);"></path></g></g><g data-idx="9" data-dup="" dx="-128" dy="128" style="transform-origin: -6.92399px 350.399px; animation: 9.09091s linear 0s infinite normal forwards running clock-8d141a2d-bc45-46c3-a25e-72bf4821516b;"><g transform="translate(-128,128)"><g transform="matrix(0.9912 0.1325 -0.1325 0.9912 30.542 -14.083) translate(121.067,222.398) scale(0.6786666666666666)"><g data-icon="" transform="scale(1.11)">  <use xlink:href="#id-0.3444641575652765" x="-50" y="-50"></use>
</g></g></g></g><g data-idx="9" data-dup="" dx="128" dy="128" style="transform-origin: 249.076px 350.399px; animation: 9.09091s linear 0s infinite normal forwards running clock-8d141a2d-bc45-46c3-a25e-72bf4821516b;"><g transform="translate(128,128)"><g transform="matrix(0.9912 0.1325 -0.1325 0.9912 30.542 -14.083) translate(121.067,222.398) scale(0.6786666666666666)"><g data-icon="" transform="scale(1.11)">  <use xlink:href="#id-0.3444641575652765" x="-50" y="-50"></use>
</g></g></g></g><g data-idx="10" data-dup="" dx="-128" dy="128" style="transform-origin: 33.2571px 203.174px; animation: 9.09091s linear 0s infinite normal forwards running clock-8d141a2d-bc45-46c3-a25e-72bf4821516b;"><g transform="translate(-128,128)"><g transform="matrix(-0.0456 0.999 -0.999 -0.0456 243.7065 -82.5047) translate(161.268,75.17099999999999) scale(0.47706666666666664)"><g data-icon="" transform="scale(1.11)">  <use xlink:href="#id-0.3444641575652765" x="-50" y="-50"></use>
</g></g></g></g><g data-idx="10" data-dup="" dx="128" dy="128" style="transform-origin: 289.257px 203.174px; animation: 9.09091s linear 0s infinite normal forwards running clock-8d141a2d-bc45-46c3-a25e-72bf4821516b;"><g transform="translate(128,128)"><g transform="matrix(-0.0456 0.999 -0.999 -0.0456 243.7065 -82.5047) translate(161.268,75.17099999999999) scale(0.47706666666666664)"><g data-icon="" transform="scale(1.11)">  <use xlink:href="#id-0.3444641575652765" x="-50" y="-50"></use>
</g></g></g></g><g data-idx="11" data-dup="" dx="-128" dy="128" style="transform-origin: 87.308px 321.082px; animation: 9.09091s linear 0s infinite normal forwards running clock-8d141a2d-bc45-46c3-a25e-72bf4821516b;"><g transform="translate(-128,128)"><g transform="matrix(0.5905 -0.8071 0.8071 0.5905 -67.6584 252.8308) translate(215.293,193.0815) scale(0.5214666666666667)"><g data-icon="" transform="scale(1.11)">  <use xlink:href="#id-0.3444641575652765" x="-50" y="-50"></use>
</g></g></g></g><g data-idx="11" data-dup="" dx="128" dy="128" style="transform-origin: 343.308px 321.082px; animation: 9.09091s linear 0s infinite normal forwards running clock-8d141a2d-bc45-46c3-a25e-72bf4821516b;"><g transform="translate(128,128)"><g transform="matrix(0.5905 -0.8071 0.8071 0.5905 -67.6584 252.8308) translate(215.293,193.0815) scale(0.5214666666666667)"><g data-icon="" transform="scale(1.11)">  <use xlink:href="#id-0.3444641575652765" x="-50" y="-50"></use>
</g></g></g></g><g data-idx="12" data-dup="" dx="-128" dy="128" style="transform-origin: -78.8153px 166.304px; animation: 9.09091s linear 0s infinite normal forwards running clock-8d141a2d-bc45-46c3-a25e-72bf4821516b;"><g transform="translate(-128,128)"><g transform="matrix(-0.4749 -0.8801 0.8801 -0.4749 38.8277 99.7848) translate(49.185,38.308499999999995) scale(0.5980444444444444)"><g data-icon="" transform="scale(1.11)">  <use xlink:href="#id-0.3444641575652765" x="-50" y="-50"></use>
</g></g></g></g><g data-idx="12" data-dup="" dx="128" dy="128" style="transform-origin: 177.185px 166.304px; animation: 9.09091s linear 0s infinite normal forwards running clock-8d141a2d-bc45-46c3-a25e-72bf4821516b;"><g transform="translate(128,128)"><g transform="matrix(-0.4749 -0.8801 0.8801 -0.4749 38.8277 99.7848) translate(49.185,38.308499999999995) scale(0.5980444444444444)"><g data-icon="" transform="scale(1.11)">  <use xlink:href="#id-0.3444641575652765" x="-50" y="-50"></use>
</g></g></g></g><g data-idx="13" data-dup="t" dx="-128" dy="128" style="transform-origin: -89.5676px 270.246px; animation: 9.09091s linear 0s infinite normal forwards running clock-8d141a2d-bc45-46c3-a25e-72bf4821516b;"><g transform="translate(-128,128)"><g transform="matrix(0.7381 -0.6747 0.6747 0.7381 -85.9069 63.1885) translate(38.434,142.243) scale(0.607688888888889)"><g data-icon="" transform="scale(1.11)">  <use xlink:href="#id-0.3444641575652765" x="-50" y="-50"></use>
</g></g></g></g><g data-idx="13" data-dup="t" dx="128" dy="128" style="transform-origin: 166.432px 270.246px; animation: 9.09091s linear 0s infinite normal forwards running clock-8d141a2d-bc45-46c3-a25e-72bf4821516b;"><g transform="translate(128,128)"><g transform="matrix(0.7381 -0.6747 0.6747 0.7381 -85.9069 63.1885) translate(38.434,142.243) scale(0.607688888888889)"><g data-icon="" transform="scale(1.11)">  <use xlink:href="#id-0.3444641575652765" x="-50" y="-50"></use>
</g></g></g></g></g><style id="clock-8d141a2d-bc45-46c3-a25e-72bf4821516b" data-anikit="">@keyframes clock-8d141a2d-bc45-46c3-a25e-72bf4821516b {
0% {
  animation-timing-function: cubic-bezier(0,0.7000000000000001,0.29999999999999993,1);
  transform: rotate(0deg);
}
8.33333% {
  animation-timing-function: cubic-bezier(0,0.7000000000000001,0.29999999999999993,1);
  transform: rotate(30deg);
}
16.66667% {
  animation-timing-function: cubic-bezier(0,0.7000000000000001,0.29999999999999993,1);
  transform: rotate(60deg);
}
25% {
  animation-timing-function: cubic-bezier(0,0.7000000000000001,0.29999999999999993,1);
  transform: rotate(90deg);
}
33.33333% {
  animation-timing-function: cubic-bezier(0,0.7000000000000001,0.29999999999999993,1);
  transform: rotate(120deg);
}
41.66667% {
  animation-timing-function: cubic-bezier(0,0.7000000000000001,0.29999999999999993,1);
  transform: rotate(150deg);
}
50% {
  animation-timing-function: cubic-bezier(0,0.7000000000000001,0.29999999999999993,1);
  transform: rotate(180deg);
}
58.33333% {
  animation-timing-function: cubic-bezier(0,0.7000000000000001,0.29999999999999993,1);
  transform: rotate(210deg);
}
66.66667% {
  animation-timing-function: cubic-bezier(0,0.7000000000000001,0.29999999999999993,1);
  transform: rotate(240deg);
}
75% {
  animation-timing-function: cubic-bezier(0,0.7000000000000001,0.29999999999999993,1);
  transform: rotate(270deg);
}
83.33333% {
  animation-timing-function: cubic-bezier(0,0.7000000000000001,0.29999999999999993,1);
  transform: rotate(300deg);
}
91.66667% {
  animation-timing-function: cubic-bezier(0,0.7000000000000001,0.29999999999999993,1);
  transform: rotate(330deg);
}
100% {
  animation-timing-function: cubic-bezier(0,0.7000000000000001,0.29999999999999993,1);
  transform: rotate(360deg);
}
}</style></svg>