<svg width="137" height="142" viewBox="0 0 137 142" fill="none" xmlns="http://www.w3.org/2000/svg">
<g filter="url(#filter0_d)">
<path fill-rule="evenodd" clip-rule="evenodd" d="M15.252 57.7441C16.5055 57.744 17.5216 58.7764 17.5215 60.0499C17.5204 90.6147 41.907 115.391 71.9904 115.39C102.074 115.389 126.462 90.6108 126.463 60.046C126.463 58.7725 127.479 57.74 128.733 57.74C129.986 57.7399 131.002 58.7723 131.002 60.0458C131.001 93.1576 104.581 120.001 71.9902 120.002C39.3999 120.003 12.9811 93.1619 12.9823 60.0501C12.9823 58.7765 13.9985 57.7441 15.252 57.7441Z" fill="#222222"/>
<path fill-rule="evenodd" clip-rule="evenodd" d="M46.4632 0.188366C47.7668 0.190058 48.8221 1.33018 48.8202 2.7349L48.7824 31.2223C48.7806 32.627 47.7223 33.7644 46.4186 33.7627C45.115 33.761 44.0598 32.6209 44.0616 31.2162L44.0994 2.72877C44.1013 1.32405 45.1596 0.186674 46.4632 0.188366Z" fill="#222222"/>
<path fill-rule="evenodd" clip-rule="evenodd" d="M93.6713 0.186901C94.9749 0.188593 96.0301 1.32872 96.0283 2.73344L95.9905 31.2208C95.9886 32.6256 94.9303 33.7629 93.6267 33.7613C92.3231 33.7596 91.2678 32.6194 91.2697 31.2147L91.3075 2.72731C91.3093 1.32259 92.3676 0.185209 93.6713 0.186901Z" fill="#222222"/>
<path fill-rule="evenodd" clip-rule="evenodd" d="M67.7803 69.7903C67.7832 68.47 68.8201 67.402 70.0962 67.4048L98.4706 67.4684C99.5455 67.4708 100.477 68.2399 100.717 69.3238C100.958 70.4078 100.444 71.5203 99.4777 72.0078L51.6169 96.1566L98.406 96.2614C99.6821 96.2643 100.714 97.3369 100.711 98.6572C100.708 99.9776 99.6714 101.046 98.3953 101.043L41.6466 100.916C40.5717 100.913 39.6405 100.144 39.4 99.0601C39.1595 97.9762 39.6733 96.8637 40.6395 96.3762L88.5003 72.2274L70.0855 72.1861C68.8094 72.1833 67.7773 71.1106 67.7803 69.7903Z" fill="#222222"/>
<path fill-rule="evenodd" clip-rule="evenodd" d="M67.6676 40.9591C67.6706 39.6374 68.7265 38.5683 70.026 38.5712L98.3656 38.6347C99.6651 38.6376 100.716 39.7114 100.713 41.0331C100.71 42.3548 99.6544 43.4239 98.3548 43.421L70.0153 43.3575C68.7158 43.3546 67.6647 42.2808 67.6676 40.9591Z" fill="#222222"/>
<path fill-rule="evenodd" clip-rule="evenodd" d="M11.2413 12.3424C11.2442 11.018 12.2803 9.94665 13.5553 9.94951L126.958 10.2036C128.233 10.2065 129.264 11.2825 129.261 12.6069C129.258 13.9313 128.222 15.0027 126.947 14.9998L13.5445 14.7457C12.2695 14.7429 11.2383 13.6669 11.2413 12.3424Z" fill="#222222"/>
<path fill-rule="evenodd" clip-rule="evenodd" d="M70.0271 72.1322C68.7262 72.1323 67.6716 71.062 67.6717 69.7417L67.6726 43.1145L67.6727 40.9486C67.6727 39.6283 68.7274 38.5579 70.0283 38.5579C71.3292 38.5578 72.3838 39.6281 72.3838 40.9484L72.3827 69.7415C72.3827 71.0618 71.328 72.1322 70.0271 72.1322Z" fill="#222222"/>
<path fill-rule="evenodd" clip-rule="evenodd" d="M45.6021 55.3431C45.7943 55.1664 46.0028 54.9776 46.227 54.7782C47.6894 53.4781 49.8086 51.7422 52.4234 50.0087C57.6989 46.5114 64.7548 43.181 72.3829 43.1807L72.3831 38.555C63.3522 38.5553 55.3261 42.4626 49.6842 46.2028C46.8404 48.0881 44.5421 49.971 42.9517 51.3849C42.1553 52.0929 41.5332 52.6862 41.1057 53.1073C40.8918 53.318 40.7264 53.4858 40.6119 53.6036C40.5547 53.6626 40.5101 53.709 40.4786 53.7421C40.4629 53.7587 40.4504 53.7719 40.4412 53.7816L40.4299 53.7937L40.4261 53.7977L40.4247 53.7992C40.4247 53.7992 40.4235 53.8004 42.2189 55.3433L41.3212 54.5719L40.4235 53.8004C39.6041 54.6787 39.604 56.008 40.4234 56.8862L42.2189 55.3433C40.4234 56.8862 40.4246 56.8874 40.4246 56.8874L40.4298 56.893L40.4411 56.905C40.4503 56.9148 40.4628 56.928 40.4785 56.9445C40.51 56.9776 40.5545 57.0241 40.6118 57.083C40.7262 57.2008 40.8917 57.3686 41.1055 57.5793C41.533 58.0004 42.1551 58.5936 42.9514 59.3016C44.5417 60.7154 46.8399 62.598 49.6836 64.4832C55.3252 68.223 63.3511 72.1297 72.3819 72.1294L72.382 67.5036C64.7539 67.5039 57.6983 64.174 52.423 60.677C49.8084 58.9438 47.6893 57.208 46.227 55.908C46.0027 55.7086 45.7943 55.5198 45.6021 55.3431Z" fill="#222222"/>
</g>
<defs>
<filter id="filter0_d" x="0.235901" y="0.187012" width="135.766" height="140.815" filterUnits="userSpaceOnUse" color-interpolation-filters="sRGB">
<feFlood flood-opacity="0" result="BackgroundImageFix"/>
<feColorMatrix in="SourceAlpha" type="matrix" values="0 0 0 0 0 0 0 0 0 0 0 0 0 0 0 0 0 0 127 0"/>
<feOffset dx="-3" dy="13"/>
<feGaussianBlur stdDeviation="4"/>
<feColorMatrix type="matrix" values="0 0 0 0 0.65 0 0 0 0 0.65 0 0 0 0 0.65 0 0 0 0.25 0"/>
<feBlend mode="normal" in2="BackgroundImageFix" result="effect1_dropShadow"/>
<feBlend mode="normal" in="SourceGraphic" in2="effect1_dropShadow" result="shape"/>
</filter>
</defs>
</svg>
