<svg width="161" height="161" viewBox="0 0 161 161" fill="none" xmlns="http://www.w3.org/2000/svg">
<path fill-rule="evenodd" clip-rule="evenodd" d="M157.099 76.9888C155.401 76.9888 154.025 78.3653 154.025 80.0633C154.025 120.815 121.002 153.851 80.265 153.851C39.5282 153.851 6.50441 120.815 6.50437 80.0631C6.50437 78.3651 5.12839 76.9886 3.43102 76.9886C1.73365 76.9886 0.357662 78.3651 0.357664 80.0631C0.3577 124.211 36.1334 160 80.265 160C124.396 160 160.172 124.211 160.172 80.0633C160.172 78.3653 158.796 76.9888 157.099 76.9888Z" fill="black"/>
<path fill-rule="evenodd" clip-rule="evenodd" d="M112.169 0.253462C110.404 0.255778 108.975 1.77595 108.977 3.64886L109.027 41.631C109.03 43.504 110.463 45.0204 112.228 45.0181C113.993 45.0157 115.422 43.4956 115.42 41.6227L115.37 3.64047C115.367 1.76756 113.934 0.251145 112.169 0.253462Z" fill="black"/>
<path fill-rule="evenodd" clip-rule="evenodd" d="M48.2433 0.253462C46.478 0.255778 45.049 1.77595 45.0515 3.64886L45.1013 41.631C45.1038 43.504 46.5368 45.0204 48.302 45.0181C50.0673 45.0157 51.4963 43.4956 51.4939 41.6227L51.444 3.64047C51.4416 1.76756 50.0085 0.251145 48.2433 0.253462Z" fill="black"/>
<path fill-rule="evenodd" clip-rule="evenodd" d="M83.3009 93.052C83.2969 91.2917 81.8929 89.8677 80.1649 89.8716L41.7424 89.9577C40.2868 89.961 39.0257 90.9864 38.7 92.4316C38.3743 93.8769 39.07 95.3601 40.3783 96.0101L105.187 128.205L41.8284 128.347C40.1004 128.351 38.7028 129.781 38.7067 131.542C38.7107 133.302 40.1147 134.726 41.8427 134.722L118.688 134.55C120.143 134.547 121.404 133.521 121.73 132.076C122.056 130.631 121.36 129.148 120.052 128.498L55.2432 96.3024L80.1792 96.2465C81.9072 96.2426 83.3048 94.8124 83.3009 93.052Z" fill="black"/>
<path fill-rule="evenodd" clip-rule="evenodd" d="M83.454 54.6141C83.45 52.8518 82.0203 51.4264 80.2606 51.4304L41.8851 51.5164C40.1254 51.5203 38.7021 52.9521 38.706 54.7144C38.71 56.4767 40.1397 57.9021 41.8994 57.8981L80.2749 57.8121C82.0346 57.8082 83.4579 56.3764 83.454 54.6141Z" fill="black"/>
<path fill-rule="evenodd" clip-rule="evenodd" d="M159.864 16.458C159.861 14.6921 158.458 13.2636 156.731 13.2675L3.16944 13.6116C1.44289 13.6155 0.0464456 15.0502 0.0504025 16.8161C0.0543595 18.582 1.45722 20.0104 3.18377 20.0065L156.745 19.6624C158.472 19.6586 159.868 18.2239 159.864 16.458Z" fill="black"/>
<path fill-rule="evenodd" clip-rule="evenodd" d="M80.2573 96.1733C82.0189 96.1733 83.447 94.7463 83.447 92.9859L83.447 57.4839L83.447 54.5962C83.447 52.8358 82.0189 51.4087 80.2573 51.4087C78.4956 51.4087 77.0676 52.8358 77.0676 54.5962L77.0676 92.9859C77.0676 94.7463 78.4957 96.1733 80.2573 96.1733Z" fill="black"/>
<path fill-rule="evenodd" clip-rule="evenodd" d="M113.333 73.7912C113.072 73.5556 112.79 73.3039 112.487 73.0381C110.506 71.3047 107.637 68.9903 104.096 66.6792C96.9524 62.0165 87.398 57.5764 77.0686 57.5764L77.0686 51.4089C89.2975 51.4089 100.166 56.6181 107.805 61.6047C111.656 64.1182 114.768 66.6285 116.922 68.5136C118 69.4575 118.843 70.2485 119.422 70.81C119.711 71.0909 119.935 71.3146 120.09 71.4717C120.168 71.5503 120.228 71.6122 120.271 71.6564C120.292 71.6784 120.309 71.696 120.321 71.7091L120.337 71.7251L120.342 71.7305L120.344 71.7325C120.344 71.7325 120.345 71.7341 117.914 73.7912L119.13 72.7627L120.345 71.7341C121.455 72.9051 121.455 74.6774 120.345 75.8484L117.914 73.7912C120.345 75.8484 120.344 75.85 120.344 75.85L120.337 75.8574L120.321 75.8734C120.309 75.8865 120.292 75.9041 120.271 75.9261C120.228 75.9703 120.168 76.0322 120.09 76.1108C119.935 76.2679 119.711 76.4916 119.422 76.7725C118.843 77.334 118 78.125 116.922 79.0689C114.768 80.954 111.656 83.4643 107.805 85.9778C100.166 90.9643 89.2975 96.1735 77.0686 96.1735L77.0686 90.0061C87.398 90.0061 96.9525 85.566 104.096 80.9032C107.637 78.5921 110.506 76.2778 112.487 74.5444C112.79 74.2786 113.072 74.0268 113.333 73.7912Z" fill="black"/>
</svg>
