<svg width="241" height="241" viewBox="0 0 241 241" fill="none" xmlns="http://www.w3.org/2000/svg">
<path fill-rule="evenodd" clip-rule="evenodd" d="M8.50408 115.488C11.011 115.488 13.0432 117.552 13.0431 120.099C13.041 181.229 61.8141 230.782 121.981 230.78C182.148 230.778 230.924 181.221 230.926 120.092C230.926 117.544 232.959 115.48 235.466 115.479C237.973 115.479 240.005 117.544 240.005 120.091C240.002 186.315 187.161 240.002 121.981 240.004C56.7998 240.006 3.96234 186.323 3.96468 120.1C3.96477 117.553 5.99713 115.488 8.50408 115.488Z" fill="white"/>
<path fill-rule="evenodd" clip-rule="evenodd" d="M70.9265 0.37722C73.5337 0.380604 75.6443 2.66085 75.6405 5.47029L75.565 62.4451C75.5612 65.2545 73.4446 67.5293 70.8374 67.5259C68.2302 67.5225 66.1196 65.2423 66.1234 62.4328L66.1989 5.45804C66.2027 2.6486 68.3193 0.373837 70.9265 0.37722Z" fill="#FFFFFE"/>
<path fill-rule="evenodd" clip-rule="evenodd" d="M165.343 0.373802C167.95 0.377186 170.06 2.65743 170.057 5.46687L169.981 62.4417C169.977 65.2511 167.861 67.5259 165.253 67.5225C162.646 67.5191 160.536 65.2389 160.539 62.4294L160.615 5.45462C160.619 2.64518 162.735 0.370419 165.343 0.373802Z" fill="#FFFFFE"/>
<path fill-rule="evenodd" clip-rule="evenodd" d="M113.561 139.58C113.567 136.939 115.64 134.803 118.192 134.809L174.941 134.936C177.091 134.941 178.953 136.479 179.434 138.647C179.915 140.815 178.888 143.04 176.955 144.015L81.2339 192.313L174.812 192.522C177.364 192.528 179.428 194.673 179.423 197.314C179.417 199.955 177.343 202.091 174.791 202.085L61.2933 201.831C59.1435 201.826 57.281 200.288 56.8 198.12C56.319 195.952 57.3466 193.727 59.279 192.752L155.001 144.454L118.171 144.372C115.619 144.366 113.555 142.221 113.561 139.58Z" fill="white"/>
<path fill-rule="evenodd" clip-rule="evenodd" d="M113.335 81.9181C113.341 79.2747 115.453 77.1365 118.052 77.1423L174.731 77.2693C177.33 77.2752 179.432 79.4228 179.426 82.0662C179.421 84.7096 177.309 86.8478 174.71 86.842L118.031 86.715C115.432 86.7092 113.329 84.5615 113.335 81.9181Z" fill="white"/>
<path fill-rule="evenodd" clip-rule="evenodd" d="M0.482478 24.6854C0.488413 22.0365 2.56046 19.8938 5.11051 19.8995L231.916 20.4077C234.466 20.4134 236.528 22.5654 236.522 25.2143C236.516 27.8631 234.444 30.0058 231.894 30.0001L5.08902 29.4919C2.53896 29.4862 0.476543 27.3342 0.482478 24.6854Z" fill="#FFFFFE"/>
<path fill-rule="evenodd" clip-rule="evenodd" d="M118.054 144.264C115.453 144.265 113.343 142.124 113.343 139.483L113.345 86.229L113.346 81.8972C113.346 79.2566 115.455 77.1158 118.057 77.1158C120.659 77.1157 122.768 79.2562 122.768 81.8969L122.766 139.483C122.766 142.124 120.656 144.264 118.054 144.264Z" fill="white"/>
<path fill-rule="evenodd" clip-rule="evenodd" d="M69.2042 110.686C69.5885 110.333 70.0055 109.955 70.454 109.556C73.3788 106.956 77.6172 103.484 82.8468 100.017C93.3978 93.0228 107.51 86.362 122.766 86.3614L122.766 77.11C104.704 77.1106 88.6521 84.9252 77.3685 92.4056C71.6807 96.1762 67.0842 99.9419 63.9034 102.77C62.3106 104.186 61.0664 105.372 60.2113 106.215C59.7836 106.636 59.4527 106.972 59.2238 107.207C59.1093 107.325 59.0203 107.418 58.9573 107.484C58.9258 107.517 58.9008 107.544 58.8824 107.563L58.8598 107.587L58.8522 107.595L58.8493 107.598C58.8493 107.598 58.8471 107.601 62.4377 110.686L60.6424 109.144L58.8471 107.601C57.2082 109.357 57.2081 112.016 58.8469 113.772L62.4377 110.686C58.8469 113.772 58.8491 113.775 58.8491 113.775L58.8596 113.786L58.8822 113.81C58.9006 113.83 58.9256 113.856 58.957 113.889C59.02 113.955 59.1091 114.048 59.2235 114.166C59.4525 114.402 59.7833 114.737 60.211 115.159C61.066 116.001 62.3101 117.187 63.9028 118.603C67.0834 121.431 71.6797 125.196 77.3672 128.966C88.6503 136.446 104.702 144.259 122.764 144.259L122.764 135.007C107.508 135.008 93.3966 128.348 82.8461 121.354C77.6167 117.888 73.3786 114.416 70.4539 111.816C70.0055 111.417 69.5885 111.04 69.2042 110.686Z" fill="white"/>
</svg>
